<?xml version="1.0" encoding="UTF-8"?>
<svg id="Layer_1" xmlns="http://www.w3.org/2000/svg" version="1.1" viewBox="0 0 612.4 487.1">
  <!-- Generator: Adobe Illustrator 29.1.0, SVG Export Plug-In . SVG Version: 2.1.0 Build 142)  -->
  <defs>
    <style>
      .st0 {
        fill: #f0f921;
      }

      .st1 {
        fill: #8b0aa5;
      }

      .st2, .st3, .st4, .st5, .st6, .st7 {
        font-family: Futura-Medium, Futura;
        font-weight: 500;
      }

      .st2, .st3, .st5, .st7 {
        font-size: 10px;
      }

      .st3 {
        letter-spacing: 0em;
      }

      .st8 {
        stroke-width: 1.2px;
      }

      .st8, .st9, .st10, .st11, .st12, .st13, .st14, .st15 {
        stroke-linejoin: round;
      }

      .st8, .st10, .st11, .st12, .st13, .st14, .st16, .st15 {
        stroke: #000;
      }

      .st8, .st17 {
        fill: #fff;
      }

      .st4 {
        font-size: 13px;
      }

      .st5 {
        letter-spacing: 0em;
      }

      .st18 {
        fill: #5302a3;
      }

      .st19 {
        fill: #ce4b75;
      }

      .st20 {
        fill: #0d0887;
      }

      .st6, .st21 {
        font-size: 12px;
      }

      .st22 {
        fill: #f79342;
      }

      .st23 {
        font-size: 8.5px;
      }

      .st23, .st21 {
        font-family: ArialMT, Arial;
      }

      .st23, .st24, .st7 {
        isolation: isolate;
      }

      .st25 {
        fill: #b12a90;
      }

      .st9 {
        stroke: #58595b;
        stroke-width: 2.5px;
      }

      .st9, .st10, .st11, .st12, .st13, .st16 {
        fill: none;
      }

      .st9, .st12, .st13, .st16 {
        stroke-linecap: square;
      }

      .st10 {
        stroke-dasharray: 2.6 1.1;
      }

      .st10, .st11 {
        stroke-opacity: .5;
        stroke-width: .7px;
      }

      .st26 {
        fill: #20068f;
      }

      .st27 {
        fill: #6a00a8;
      }

      .st28 {
        fill: #e66c5c;
      }

      .st12 {
        stroke-width: 1.5px;
      }

      .st29 {
        fill: #3a049a;
      }

      .st30 {
        fill: #febd2a;
      }

      .st24 {
        font-family: LucidaGrande, 'Lucida Grande';
        font-size: 8px;
        opacity: .5;
      }

      .st14, .st16, .st15 {
        stroke-width: .8px;
      }

      .st15 {
        fill: aqua;
      }

      .st31 {
        fill: #f6e826;
      }
    </style>
  </defs>
  <line class="st9" x1="444.7" y1="314.9" x2="207.9" y2="178.2"/>
  <path class="st12" d="M50,451.6L286.8,41.5l236.8,410.1H50"/>
  <path class="st20" d="M226.3,280.5h.8c0,.1.3.2.3.2l-.3-.2h-.8l-.8-.7-.8-.7h-.8l-.8-.7-.8-.7h-.8l-.8-.7-.8-.7h-.8l-.8-.7-.8-.7h-.8l-.8-.7-.8-.7h-.8l-.8-.7-.8-.7h-.8l-.8-.7-.8-.7h-.8l-.8-.7-.8-.7h-.8l-.8-.7-.8-.7h-.8l-.8-.7-.8-.7h-.8l-.8-.7-.8-.7h-.8l-.8-.7-.8-.7h-.8l-.8-.7-.8-.7h-.8l-.8-.7-.8-.7h-.8l-.8-.7-.8-.7h-.8l-.8-.7-.8-.7h-.8l-.8-.7-.8-.7h-.8l-.8-.7-.8-.7h-.8l-.8-.7-.8-.7h-.8l-.8-.7-.8-.7h-.8l-.8-.7-.8-.7h-.8l-.8-.7-.8-.7h-.8l-.8-.7-.8-.7h-.8l-.8-.7-.8-.7h-.8l-.8-.7-.8.7v.7l-.8.7v.7l-.8.7v.7l-.8.7v.7l-.8.7v.7l-.8.7v.7l-.8.7v.7l-.8.7v.7l-.8.7v.7l-.8.7v.7l-.8.7v.7l-.8.7v.7l-.8.7v.7l-.8.7h0c0,.1.8.4.8.4l.8.2h.3c0,0,.5.2.5.2l.8.2.8.2h.2c0,0,.6.2.6.2l.8.2.8.2h.2c0,0,.6.2.6.2l.8.2.8.2h.4c0,0,.4.2.4.2l.8.2.8.2.6.2h.2s.8.2.8.2l.8.2.8.2h.2s.6.2.6.2l.8.2.8.2h.6c0,.1.2.2.2.2l.8.2.8.2.8.2h.3c0,0,.4.2.4.2l.8.2.8.2.8.2h.2s.6.2.6.2l.8.2.8.2.8.2h0s.7.2.7.2l.8.2.8.2.8.2h0s.7.2.7.2l.8.2.8.2.8.2h.1s.7.2.7.2l.8.2.8.2.8.2h.2s.5.2.5.2l.8.2.8.2.8.2h.4c0,0,.3.2.3.2l.8.2.8.2.8.2h.7c0,.1,0,.2,0,.2l.8.2.8.2.8.2.8.2h.3c0,0,.5.2.5.2l.8.2.8.2.8.2h.7c0,.1.1.2.1.2l.8.2h.8c0,.1.8.3.8.3h.8c0,.1.4.2.4.2h.4c0,0,.8.2.8.2h.8c0,.1.8.3.8.3h.8c0,.1,0,.2,0,.2h.7c0,.1.8.3.8.3h.8c0,.1.8.3.8.3h.7c0,.1.1.1.1.1h.8c0,.1.8.3.8.3h.8c0,.1.8.3.8.3h.5c0,0,.3.1.3.1h.8c0,.1.8.3.8.3h.8c0,.1.8.3.8.3h.4c0,0,.3.1.3.1Z"/>
  <path class="st26" d="M261.1,316.1h.8s.8,0,.8,0h.8s.8,0,.8,0h.8s.8,0,.8,0h.8s.8,0,.8,0h.8s.8,0,.8,0h.8s.8,0,.8,0h.8s.8,0,.8,0h.8s.8,0,.8,0h.8s.8,0,.8,0h.8s.8,0,.8,0h.8s.8,0,.8,0h.8s.8,0,.8,0h.8s.8,0,.8,0h.8s.8,0,.8,0h.8s.8,0,.8,0h.8s.8,0,.8,0h.8s.8,0,.8,0h.8s.3,0,.3,0l-.3-.2h-.8l-.8-.7-.8-.7h-.8l-.8-.7-.8-.7h-.8l-.8-.7-.8-.7h-.8l-.8-.7-.8-.7h-.8l-.8-.7-.8-.7h-.8l-.8-.7-.8-.7h-.8l-.8-.7-.8-.7h-.8l-.8-.7-.8-.7h-.8l-.8-.7-.8-.7h-.8l-.8-.7-.8-.7h-.8l-.8-.7-.8-.7h-.8l-.8-.7-.8-.7h-.8l-.8-.7-.8-.7h-.8l-.8-.7-.8-.7h-.8l-.8-.7-.8-.7h-.8l-.8-.7-.8-.7h-.8l-.8-.7-.8-.7h-.8l-.8-.7-.8-.7h-.8l-.8-.7-.8-.7h-.8l-.8-.7-.8-.7h-.8l-.8-.7-.8-.7h-.8l-.8-.7-.8-.7h-.8l-.8-.7-.8-.7h-.8l-.8-.7-.8-.7h-.8l-.8-.7-.8-.7h-.8l-.8-.7-.5-.4h-.3c0,0-.8-.2-.8-.2h-.3c0,0-.4-.1-.4-.1h-.8c0-.1-.8-.3-.8-.3h-.8c0-.1-.8-.3-.8-.3h-.3s-.5-.1-.5-.1h-.8c0-.1-.8-.3-.8-.3h-.8c0-.1-.8-.3-.8-.3h-.1s-.7-.1-.7-.1h-.8c0-.1-.8-.3-.8-.3h-.8c0-.1-.7-.3-.7-.3h0s-.8-.2-.8-.2h-.8c0-.1-.8-.3-.8-.3h-.8c0-.1-.4-.2-.4-.2h-.4c0,0-.8-.2-.8-.2h-.8c0-.1-.8-.3-.8-.3l-.8-.2h-.1s-.7-.2-.7-.2l-.8-.2-.8-.2-.8-.2h-.5c0-.1-.3-.2-.3-.2l-.8-.2-.8-.2-.8-.2-.8-.2h0s-.7-.2-.7-.2l-.8-.2-.8-.2-.8-.2h-.3c0,0-.4-.2-.4-.2l-.8-.2-.8-.2-.8-.2h-.5c0-.1-.2-.2-.2-.2l-.8-.2-.8-.2-.8-.2h-.7c0-.1-.1-.2-.1-.2l-.8-.2-.8-.2-.8-.2-.7-.2h0s-.8-.2-.8-.2l-.8-.2-.8-.2-.7-.2h0s-.8-.2-.8-.2l-.8-.2-.8-.2h-.6c0-.1-.2-.2-.2-.2l-.8-.2-.8-.2-.8-.2h-.4c0-.1-.3-.2-.3-.2l-.8-.2-.8-.2-.8-.2h-.2s-.6-.2-.6-.2l-.8-.2-.8-.2-.6-.2h-.2s-.8-.2-.8-.2l-.8-.2-.8-.2h-.2s-.6-.2-.6-.2l-.8-.2-.8-.2h-.4c0-.1-.4-.2-.4-.2l-.8-.2-.8-.2-.6-.2h-.2c0,0-.8-.3-.8-.3l-.8-.2-.6-.2h-.2c0,0-.8-.3-.8-.3l-.8-.2h-.5c0-.1-.3-.2-.3-.2l-.8-.2-.8-.2v.6l-.8.7v.7l-.8.7v.7l-.8.7v.7l-.8.7v.7l-.8.7v.7l-.8.7v.7l-.8.7v.7l-.8.7v.7l-.8.7v.7l-.8.7v.7l-.8.7v.7l-.8.7v.7l-.8.7v.7l-.8.7v.7l-.8.7v.7l-.8.7v.7l-.8.7v.7l-.8.7v.7l-.8.7v.7l-.8.7v.7l-.8.7v.7l-.8.7v.7l-.8.7v.7l-.8.7v.7l-.8.7v.7l-.8.7v.7l-.8.7v.7l-.8.7v.7l-.8.7v.7l-.8.7v.7l-.8.7v.7l-.8.7v.7l-.8.7v.7l-.8.7v.7l-.8.7v.7l-.8.7.8.7h.8l.2.2h.6s.8,0,.8,0h.8s.8,0,.8,0h.8s.8,0,.8,0h.8s.8,0,.8,0h.8s.8,0,.8,0h.8s.8,0,.8,0h.8s.8,0,.8,0h.8s.8,0,.8,0h.8s.8,0,.8,0h.8s.8,0,.8,0h.8s.8,0,.8,0h.8s.8,0,.8,0h.8s.8,0,.8,0h.8s.8,0,.8,0h.8s.8,0,.8,0h.8s.8,0,.8,0h.8s.8,0,.8,0h.8s.8,0,.8,0h.8s.8,0,.8,0h.8s.8,0,.8,0h.8s.8,0,.8,0h.8s.8,0,.8,0h.8s.8,0,.8,0h.8s.8,0,.8,0h.8s.8,0,.8,0h.8s.8,0,.8,0h.8s.8,0,.8,0h.8s.8,0,.8,0h.8s.8,0,.8,0h.8s.8,0,.8,0h.8s.8,0,.8,0h.8s.8,0,.8,0h.8s.8,0,.8,0h.8s.8,0,.8,0h.8s.8,0,.8,0h.8s.8,0,.8,0h.8s.8,0,.8,0h.8s.8,0,.8,0h.8s.8,0,.8,0h.8s.8,0,.8,0h.8s.8,0,.8,0h.8s.8,0,.8,0h.8s.8,0,.8,0h.8s.8,0,.8,0h.8s.8,0,.8,0h.8s.8,0,.8,0h.8s.8,0,.8,0h.8s.8,0,.8,0h.8s.8,0,.8,0h.8s.8,0,.8,0h.8s.8,0,.8,0h.8s.8,0,.8,0h.8s.8,0,.8,0h.8s.8,0,.8,0h.8s.8,0,.8,0h.8s.8,0,.8,0h.8s.8,0,.8,0h.8s.8,0,.8,0h.8s.8,0,.8,0h.8s.8,0,.8,0h.8s.8,0,.8,0h.8s.8,0,.8,0h.8s.8,0,.8,0h.8s.8,0,.8,0h.8s.8,0,.8,0h.8s.8,0,.8,0h.8s.8,0,.8,0h.8s.8,0,.8,0h.8s.8,0,.8,0h.8s.8,0,.8,0h.8s.8,0,.8,0h.8s.8,0,.8,0h.8s.8,0,.8,0h.8s.8,0,.8,0h.8s.8,0,.8,0h.8s.8,0,.8,0h.8s.8,0,.8,0h.8s.8,0,.8,0h.8s.8,0,.8,0h.8s.8,0,.8,0h.8s.8,0,.8,0h.8s.8,0,.8,0h.4s.4,0,.4,0Z"/>
  <path class="st29" d="M320.4,335.3h.8c0,0,.8.1.8.1h.2s-.2-.2-.2-.2h-.8l-.8-.7-.8-.7h-.8l-.8-.7-.8-.7h-.8l-.8-.7-.8-.7h-.8l-.8-.7-.8-.7h-.8l-.8-.7-.8-.7h-.8l-.8-.7-.8-.7h-.8l-.8-.7-.8-.7h-.8l-.8-.7-.8-.7h-.8l-.8-.7-.8-.7h-.8l-.8-.7-.8-.7h-.8l-.8-.7-.8-.7h-.8l-.8-.7-.8-.7h-.8l-.8-.7-.8-.7h-.8l-.8-.7-.5-.5h-.3s-.8,0-.8,0h-.8s-.8,0-.8,0h-.8s-.8,0-.8,0h-.8s-.8,0-.8,0h-.8s-.8,0-.8,0h-.8s-.8,0-.8,0h-.8s-.8,0-.8,0h-.8s-.8,0-.8,0h-.8s-.8,0-.8,0h-.8s-.8,0-.8,0h-.8s-.8,0-.8,0h-.8s-.8,0-.8,0h-.8s-.8,0-.8,0h-.8s-.8,0-.8,0h-.8s-.8,0-.8,0h-.8s-.8,0-.8,0h-.8s-.8,0-.8,0h-.8s-.8,0-.8,0h-.4s-.4,0-.4,0h-.8s-.8,0-.8,0h-.8s-.8,0-.8,0h-.8s-.8,0-.8,0h-.8s-.8,0-.8,0h-.8s-.8,0-.8,0h-.8s-.8,0-.8,0h-.8s-.8,0-.8,0h-.8s-.8,0-.8,0h-.8s-.8,0-.8,0h-.8s-.8,0-.8,0h-.8s-.8,0-.8,0h-.8s-.8,0-.8,0h-.8s-.8,0-.8,0h-.8s-.8,0-.8,0h-.8s-.8,0-.8,0h-.8s-.8,0-.8,0h-.8s-.8,0-.8,0h-.8s-.8,0-.8,0h-.8s-.8,0-.8,0h-.8s-.8,0-.8,0h-.8s-.8,0-.8,0h-.8s-.8,0-.8,0h-.8s-.8,0-.8,0h-.8s-.8,0-.8,0h-.8s-.8,0-.8,0h-.8s-.8,0-.8,0h-.8s-.8,0-.8,0h-.8s-.8,0-.8,0h-.8s-.8,0-.8,0h-.8s-.8,0-.8,0h-.8s-.8,0-.8,0h-.8s-.8,0-.8,0h-.8s-.8,0-.8,0h-.8s-.8,0-.8,0h-.8s-.8,0-.8,0h-.8s-.8,0-.8,0h-.8s-.8,0-.8,0h-.8s-.8,0-.8,0h-.8s-.8,0-.8,0h-.8s-.8,0-.8,0h-.8s-.8,0-.8,0h-.8s-.8,0-.8,0h-.8s-.8,0-.8,0h-.8s-.8,0-.8,0h-.8s-.8,0-.8,0h-.8s-.8,0-.8,0h-.8s-.8,0-.8,0h-.8s-.8,0-.8,0h-.8s-.8,0-.8,0h-.8s-.8,0-.8,0h-.8s-.8,0-.8,0h-.8s-.8,0-.8,0h-.8s-.8,0-.8,0h-.8s-.8,0-.8,0h-.8s-.8,0-.8,0h-.8s-.8,0-.8,0h-.8s-.8,0-.8,0h-.8s-.8,0-.8,0h-.8s-.8,0-.8,0h-.8s-.8,0-.8,0h-.8s-.8,0-.8,0h-.8s-.8,0-.8,0h-.8s-.8,0-.8,0h-.8s-.8,0-.8,0h-.8s-.8,0-.8,0h-.8s-.8,0-.8,0h-.8s-.8,0-.8,0h-.8s-.8,0-.8,0h-.8s-.8,0-.8,0h-.8s-.8,0-.8,0h-.8s-.8,0-.8,0h-.8s-.8,0-.8,0h-.8s-.8,0-.8,0h-.8s-.8,0-.8,0h-.8s-.8,0-.8,0h-.8s-.8,0-.8,0h-.8s-.8,0-.8,0h-.8s-.8,0-.8,0h-.8s-.8,0-.8,0h-.8s-.8,0-.8,0h-.8s-.8,0-.8,0h-.8s-.6,0-.6,0l.6.5.8.7h.8l.8.7.8.7h.8l.8.7.8.7h.8l.8.7.8.7h.8l.8.7.8.7h.8l.8.7.8.7h.8l.8.7.8.7h.8l.8.7.2.2h.6s.8,0,.8,0h.8s.8,0,.8,0h.8s.8,0,.8,0h.8s.8,0,.8,0h.8s.8,0,.8,0h.8s.8,0,.8,0h.8s.8,0,.8,0h.8s.8,0,.8,0h.8s.8,0,.8,0h.6s.2,0,.2,0h.8s.8,0,.8,0h.8s.8,0,.8,0h.8s.8,0,.8,0h.8s.8,0,.8,0h.8s.8,0,.8,0h.8s.8,0,.8,0h.8s.8,0,.8,0h.8s.8,0,.8,0h.8s.8,0,.8,0h.8s.8,0,.8,0h.8s.8,0,.8,0h.5s.3,0,.3,0h.8s.8,0,.8,0h.8s.8,0,.8,0h.8s.8,0,.8,0h.8s.8,0,.8,0h.8s.8,0,.8,0h.8s.8,0,.8,0h.8s.8,0,.8,0h.8s.8,0,.8,0h.8s.8,0,.8,0h.8s.8,0,.8,0h.2s.6,0,.6,0h.8s.8,0,.8,0h.8s.8,0,.8,0h.8s.8,0,.8,0h.8s.8,0,.8,0h.8s.8,0,.8,0h.8s.8,0,.8,0h.8s.8,0,.8,0h.8s.8,0,.8,0h.8s.8,0,.8,0h0s.8,0,.8,0h.8s.8,0,.8,0h.8s.8,0,.8,0h.8s.8,0,.8,0h.8s.8,0,.8,0h.8s.8,0,.8,0h.8s.8,0,.8,0h.8s.8,0,.8,0h.8s.8,0,.8,0h.5s.3,0,.3,0h.8s.8,0,.8,0h.8s.8,0,.8,0h.8s.8,0,.8,0h.8s.8,0,.8,0h.8s.8,0,.8,0h.8s.8,0,.8,0h.8s.8,0,.8,0h.8s.8,0,.8,0h.3s.5,0,.5,0h.8s.8,0,.8,0h.8s.8,0,.8,0h.8s.8,0,.8,0h.8s.8,0,.8,0h.8s.8,0,.8,0h.8s.8,0,.8,0h.8s.8,0,.8,0h.7s0,0,0,0h.8s.8,0,.8,0h.8s.8,0,.8,0h.8s.8,0,.8,0h.8s.8,0,.8,0h.8s.8,0,.8,0h.8s.8,0,.8,0h.8s.8,0,.8,0h.4s.3,0,.3,0h.8s.8,0,.8,0h.8s.8,0,.8,0h.8s.8,0,.8,0h.8s.8,0,.8,0h.8c0,0,.8.1.8.1h.8c0,0,.8.1.8.1h.8c0,0,.3,0,.3,0h.5s.8,0,.8,0h.8c0,0,.8.1.8.1h.8c0,0,.8.1.8.1h.8c0,0,.8.1.8.1h.8c0,0,.8.1.8.1h.8c0,0,.8.1.8.1h.8c0,0,.2,0,.2,0h.6s.8,0,.8,0h.8c0,0,.8.1.8.1h.8c0,0,.8.1.8.1h.8c0,0,.8.1.8.1h.8c0,0,.8.1.8.1h.8c0,0,.8.1.8.1h.4s.4,0,.4,0h.8c0,0,.8.1.8.1h.8c0,0,.8.1.8.1h.8c0,0,.8.1.8.1h.8c0,0,.8.1.8.1h.8c0,0,.8.1.8.1h.8c0,0,0,0,0,0h.7c0,0,.8.1.8.1h.8c0,0,.8.1.8.1h.8c0,0,.8.1.8.1h.8c0,0,.8.1.8.1h.8c0,0,.8.1.8.1h.8c0,0,0,0,0,0h.7c0,0,.8.1.8.1h.8c0,0,.8.1.8.1h.8c0,0,.8.1.8.1h.8c0,0,.8.1.8.1h.8c0,0,.8.1.8.1h.4s.4,0,.4,0Z"/>
  <path class="st18" d="M344.9,350.3h.8s.8,0,.8,0h.8s.8,0,.8,0h.3s-.3-.2-.3-.2h-.8l-.8-.7-.8-.7h-.8l-.8-.7-.8-.7h-.8l-.8-.7-.8-.7h-.8l-.8-.7-.8-.7h-.8l-.8-.7-.8-.7h-.8l-.8-.7-.8-.7h-.8l-.8-.7-.8-.7h-.8l-.8-.7-.8-.7h-.8l-.8-.7-.8-.7h-.8l-.8-.7-.8-.7h-.8l-.8-.7-.6-.5h-.2s-.8,0-.8,0h-.8c0,0-.4,0-.4,0h-.4s-.8-.1-.8-.1h-.8c0,0-.8-.1-.8-.1h-.8c0,0-.8-.1-.8-.1h-.8c0,0-.8-.1-.8-.1h-.8c0,0-.8-.1-.8-.1h-.7c0,0,0,0,0,0h-.8c0,0-.8-.1-.8-.1h-.8c0,0-.8-.1-.8-.1h-.8c0,0-.8-.1-.8-.1h-.8c0,0-.8-.1-.8-.1h-.8c0,0-.8-.1-.8-.1h-.7c0,0,0,0,0,0h-.8c0,0-.8-.1-.8-.1h-.8c0,0-.8-.1-.8-.1h-.8c0,0-.8-.1-.8-.1h-.8c0,0-.8-.1-.8-.1h-.8c0,0-.8-.1-.8-.1h-.8c0,0-.4,0-.4,0h-.4s-.8,0-.8,0h-.8c0,0-.8-.1-.8-.1h-.8c0,0-.8-.1-.8-.1h-.8c0,0-.8-.1-.8-.1h-.8c0,0-.8-.1-.8-.1h-.8c0,0-.8-.1-.8-.1h-.6s-.2,0-.2,0h-.8c0,0-.8-.1-.8-.1h-.8c0,0-.8-.1-.8-.1h-.8c0,0-.8-.1-.8-.1h-.8c0,0-.8-.1-.8-.1h-.8c0,0-.8-.1-.8-.1h-.8c0,0-.8-.1-.8-.1h-.5s-.3,0-.3,0h-.8c0,0-.8-.1-.8-.1h-.8c0,0-.8-.1-.8-.1h-.8c0,0-.8-.1-.8-.1h-.8s-.8,0-.8,0h-.8s-.8,0-.8,0h-.8s-.8,0-.8,0h-.8s-.3,0-.3,0h-.4s-.8,0-.8,0h-.8s-.8,0-.8,0h-.8s-.8,0-.8,0h-.8s-.8,0-.8,0h-.8s-.8,0-.8,0h-.8s-.8,0-.8,0h-.8s-.8,0-.8,0h-.8s0,0,0,0h-.7s-.8,0-.8,0h-.8s-.8,0-.8,0h-.8s-.8,0-.8,0h-.8s-.8,0-.8,0h-.8s-.8,0-.8,0h-.8s-.8,0-.8,0h-.8s-.8,0-.8,0h-.8s-.5,0-.5,0h-.3s-.8,0-.8,0h-.8s-.8,0-.8,0h-.8s-.8,0-.8,0h-.8s-.8,0-.8,0h-.8s-.8,0-.8,0h-.8s-.8,0-.8,0h-.8s-.8,0-.8,0h-.8s-.8,0-.8,0h-.8s-.3,0-.3,0h-.5s-.8,0-.8,0h-.8s-.8,0-.8,0h-.8s-.8,0-.8,0h-.8s-.8,0-.8,0h-.8s-.8,0-.8,0h-.8s-.8,0-.8,0h-.8s-.8,0-.8,0h-.8s-.8,0-.8,0h-.8s-.8,0-.8,0h0s-.8,0-.8,0h-.8s-.8,0-.8,0h-.8s-.8,0-.8,0h-.8s-.8,0-.8,0h-.8s-.8,0-.8,0h-.8s-.8,0-.8,0h-.8s-.8,0-.8,0h-.8s-.8,0-.8,0h-.8s-.8,0-.8,0h-.8s-.6,0-.6,0h-.2s-.8,0-.8,0h-.8s-.8,0-.8,0h-.8s-.8,0-.8,0h-.8s-.8,0-.8,0h-.8s-.8,0-.8,0h-.8s-.8,0-.8,0h-.8s-.8,0-.8,0h-.8s-.8,0-.8,0h-.8s-.8,0-.8,0h-.8s-.8,0-.8,0h-.8s-.3,0-.3,0h-.5s-.8,0-.8,0h-.8s-.8,0-.8,0h-.8s-.8,0-.8,0h-.8s-.8,0-.8,0h-.8s-.8,0-.8,0h-.8s-.8,0-.8,0h-.8s-.8,0-.8,0h-.8s-.8,0-.8,0h-.8s-.8,0-.8,0h-.8s-.8,0-.8,0h-.8s-.8,0-.8,0h-.8s-.2,0-.2,0h-.6s-.8,0-.8,0h-.8s-.8,0-.8,0h-.8s-.8,0-.8,0h-.8s-.8,0-.8,0h-.8s-.8,0-.8,0h-.8s-.8,0-.8,0h-.8s-.8,0-.8,0h-.8s-.8,0-.8,0h-.8s-.8,0-.8,0h-.6s.6.5.6.5h.8l.8.7.8.7h.8l.8.7.8.7h.8l.8.7.8.7h.8l.8.7.8.7h.8l.8.7.8.7h.8l.8.7.8.7h.8l.8.7.8.7h.8l.3.2h.5s.8,0,.8,0h.8s.8,0,.8,0h.8s.8,0,.8,0h.8s.8,0,.8,0h.8s.8,0,.8,0h.3s.5,0,.5,0h.8s.8,0,.8,0h.8s.8,0,.8,0h.8s.8,0,.8,0h.8s.8,0,.8,0h.8s.8,0,.8,0h.8s.8,0,.8,0h.8s.7,0,.7,0h.1s.8,0,.8,0h.8s.8,0,.8,0h.8s.8,0,.8,0h.8s.8,0,.8,0h.8s.8,0,.8,0h.8c0,0,.8.1.8.1h.8c0,0,.8.1.8.1h.5s.3,0,.3,0h.8c0,0,.8.1.8.1h.8c0,0,.8.1.8.1h.8c0,0,.8.1.8.1h.8c0,0,.8.1.8.1h.8c0,0,.8.1.8.1h.8c0,0,.8.1.8.1h.6s.2,0,.2,0h.8c0,0,.8.1.8.1h.8c0,0,.8.1.8.1h.8c0,0,.8.1.8.1h.8c0,0,.8.1.8.1h.8c0,0,.8.1.8.1h.8c0,0,.8.1.8.1h.3s.5,0,.5,0h.8c0,0,.8.1.8.1h.8c0,0,.8.1.8.1h.8c0,0,.8.1.8.1h.8c0,0,.8.1.8.1h.8c0,0,.8.1.8.1h.8c0,0,.3,0,.3,0h.5s.8,0,.8,0h.8c0,0,.8.1.8.1h.8c0,0,.8.1.8.1h.8c0,0,.8.1.8.1h.8c0,0,.8.1.8.1h.8c0,0,.8.1.8.1h0s.8,0,.8,0h.8c0,0,.8.1.8.1h.8c0,0,.8.1.8.1h.8c0,0,.8.1.8.1h.8c0,0,.8.1.8.1h.8c0,0,.8.1.8.1h0s.7,0,.7,0h.8c0,0,.8.1.8.1h.8c0,0,.8.1.8.1h.8c0,0,.8.1.8.1h.8c0,0,.8.1.8.1h.8c0,0,.6.1.6.1h.2s.8,0,.8,0h.8c0,0,.8.1.8.1h.8c0,0,.8.1.8.1h.8c0,0,.8.1.8.1h.8c0,0,.8.1.8.1h.8c0,0,.4.1.4.1h.4s.8,0,.8,0h.8c0,0,.8.1.8.1h.8c0,0,.8.1.8.1h.8c0,0,.8.1.8.1h.8c0,0,.8.1.8.1h.8c0,0,0,0,0,0h.8c0,0,.8.1.8.1h.8c0,0,.8.1.8.1h.8c0,0,.8.1.8.1h.8c0,0,.8.1.8.1h.8c0,0,.7.1.7.1h0s.8,0,.8,0h.8c0,0,.8.1.8.1h.8c0,0,.8.1.8.1h.8c0,0,.8.1.8.1h.8c0,0,.8.1.8.1h.3s.5,0,.5,0h.8c0,0,.8.1.8.1h.8c0,0,.8.1.8.1h.8c0,0,.8.2.8.2h.8c0,0,.8.2.8.2h.4s.4,0,.4,0h.8c0,0,.8.2.8.2h.8c0,0,.8.2.8.2h.8c0,0,.8.2.8.2h.8c0,0,.8.2.8.2h.2s.6,0,.6,0h.8c0,0,.8.2.8.2h.8c0,0,.8.2.8.2h.8c0,0,.8.2.8.2h.8c0,0,.5.1.5.1h.3s.8.1.8.1h.8c0,0,.8.2.8.2h.8c0,0,.8.2.8.2h.8c0,0,.8.2.8.2h.5c0,0,.3,0,.3,0h.8c0,0,.8.2.8.2h.8c0,0,.8.2.8.2h.8c0,0,.8.2.8.2h.8c0,0,.3.1.3.1h.5c0,0,.8.1.8.1h.8c0,0,.8.2.8.2h.8c0,0,.8.2.8.2h.8c0,0,.6.2.6.2h.2s.8,0,.8,0h.8c0,0,.8.1.8.1h.8c0,0,.8.1.8.1h.8c0,0,.8.1.8.1h.8c0,0,.8.1.8.1h.8c0,0,.8.1.8.1h.5s.3,0,.3,0h.8c0,0,.8.1.8.1h.8c0,0,.8.1.8.1h.8c0,0,.8.1.8.1h.8c0,0,.8.1.8.1h.8c0,0,.8.1.8.1h.8c0,0,.8,0,.8,0h.8s.2,0,.2,0h.6Z"/>
  <path class="st27" d="M360.7,357.9h0s0,0,0,0l-.8-.7h-.8l-.8-.7-.8-.7h-.8l-.8-.7-.8-.7h-.8l-.8-.7-.8-.7h-.8l-.8-.7-.8-.7h-.8l-.8-.7-.5-.4h-.3s-.8,0-.8,0h-.8s-.8,0-.8,0h-.8s-.6,0-.6,0h-.2s-.8,0-.8,0h-.8s-.8,0-.8,0h-.8c0,0-.8-.1-.8-.1h-.8c0,0-.8-.1-.8-.1h-.8c0,0-.8-.1-.8-.1h-.8c0,0-.8-.1-.8-.1h-.8c0,0-.8-.1-.8-.1h-.3s-.5,0-.5,0h-.8c0,0-.8-.1-.8-.1h-.8c0,0-.8-.1-.8-.1h-.8c0,0-.8-.1-.8-.1h-.8c0,0-.8-.1-.8-.1h-.8c0,0-.8-.1-.8-.1h-.8c0,0-.2,0-.2,0h-.6c0,0-.8-.2-.8-.2h-.8c0,0-.8-.2-.8-.2h-.8c0,0-.8-.2-.8-.2h-.8c0,0-.5-.1-.5-.1h-.3s-.8-.1-.8-.1h-.8c0,0-.8-.2-.8-.2h-.8c0,0-.8-.2-.8-.2h-.8c0,0-.8-.2-.8-.2h-.3s-.5,0-.5,0h-.8c0,0-.8-.2-.8-.2h-.8c0,0-.8-.2-.8-.2h-.8c0,0-.8-.2-.8-.2h-.8c0,0-.3-.1-.3-.1h-.5s-.8-.1-.8-.1h-.8c0,0-.8-.2-.8-.2h-.8c0,0-.8-.2-.8-.2h-.8c0,0-.8-.2-.8-.2h-.6c0,0-.2,0-.2,0h-.8c0,0-.8-.2-.8-.2h-.8c0,0-.8-.2-.8-.2h-.8c0,0-.8-.2-.8-.2h-.8c0,0-.8-.2-.8-.2h-.4s-.4,0-.4,0h-.8c0,0-.8-.2-.8-.2h-.8c0,0-.8-.2-.8-.2h-.8c0,0-.8-.1-.8-.1h-.8c0,0-.8-.1-.8-.1h-.5s-.3,0-.3,0h-.8c0,0-.8-.1-.8-.1h-.8c0,0-.8-.1-.8-.1h-.8c0,0-.8-.1-.8-.1h-.8c0,0-.8-.1-.8-.1h-.8c0,0,0,0,0,0h-.7c0,0-.8-.1-.8-.1h-.8c0,0-.8-.1-.8-.1h-.8c0,0-.8-.1-.8-.1h-.8c0,0-.8-.1-.8-.1h-.8c0,0-.8-.1-.8-.1h0s-.8,0-.8,0h-.8c0,0-.8-.1-.8-.1h-.8c0,0-.8-.1-.8-.1h-.8c0,0-.8-.1-.8-.1h-.8c0,0-.8-.1-.8-.1h-.8c0,0-.4,0-.4,0h-.4s-.8-.1-.8-.1h-.8c0,0-.8-.1-.8-.1h-.8c0,0-.8-.1-.8-.1h-.8c0,0-.8-.1-.8-.1h-.8c0,0-.8-.1-.8-.1h-.8c0,0-.2,0-.2,0h-.6c0,0-.8-.1-.8-.1h-.8c0,0-.8-.1-.8-.1h-.8c0,0-.8-.1-.8-.1h-.8c0,0-.8-.1-.8-.1h-.8c0,0-.8-.1-.8-.1h-.7c0,0,0,0,0,0h-.8c0,0-.8-.1-.8-.1h-.8c0,0-.8-.1-.8-.1h-.8c0,0-.8-.1-.8-.1h-.8c0,0-.8-.1-.8-.1h-.8c0,0-.8-.1-.8-.1h-.8c0,0,0,0,0,0h-.8c0,0-.8-.1-.8-.1h-.8c0,0-.8-.1-.8-.1h-.8c0,0-.8-.1-.8-.1h-.8c0,0-.8-.1-.8-.1h-.8c0,0-.8-.1-.8-.1h-.8c0,0-.5,0-.5,0h-.3s-.8,0-.8,0h-.8c0,0-.8-.1-.8-.1h-.8c0,0-.8-.1-.8-.1h-.8c0,0-.8-.1-.8-.1h-.8c0,0-.8-.1-.8-.1h-.8c0,0-.8-.1-.8-.1h-.5s-.3,0-.3,0h-.8c0,0-.8-.1-.8-.1h-.8c0,0-.8-.1-.8-.1h-.8c0,0-.8-.1-.8-.1h-.8c0,0-.8-.1-.8-.1h-.8c0,0-.8-.1-.8-.1h-.8c0,0-.8-.1-.8-.1h-.2s-.6,0-.6,0h-.8c0,0-.8-.1-.8-.1h-.8c0,0-.8-.1-.8-.1h-.8c0,0-.8-.1-.8-.1h-.8c0,0-.8-.1-.8-.1h-.8c0,0-.8-.1-.8-.1h-.8c0,0-.8-.1-.8-.1h-.3s-.5,0-.5,0h-.8c0,0-.8-.1-.8-.1h-.8c0,0-.8-.1-.8-.1h-.8c0,0-.8,0-.8,0h-.8s-.8,0-.8,0h-.8s-.8,0-.8,0h-.8s-.8,0-.8,0h-.8s-.1,0-.1,0h-.7s-.8,0-.8,0h-.8s-.8,0-.8,0h-.8s-.8,0-.8,0h-.8s-.8,0-.8,0h-.8s-.8,0-.8,0h-.8s-.8,0-.8,0h-.8s-.8,0-.8,0h-.5s-.3,0-.3,0h-.8s-.8,0-.8,0h-.8s-.8,0-.8,0h-.8s-.8,0-.8,0h-.8s-.8,0-.8,0h-.8s-.5,0-.5,0l.5.5.8.7h.8l.8.7.8.7h.8l.8.7.8.7h.8l.8.7.8.7h.8l.8.7.8.7h.8l.8.7.8.7h.8l.8.7.8.7h.8l.5.5h.3s.8,0,.8,0h.8c0,0,.8.1.8.1h.6s.2,0,.2,0h.8c0,0,.8.1.8.1h.8c0,0,.8.1.8.1h.8c0,0,.8.1.8.1h.8c0,0,.8.1.8.1h.8c0,0,.8.1.8.1h.8c0,0,.4,0,.4,0h.4s.8,0,.8,0h.8c0,0,.8.1.8.1h.8c0,0,.8.1.8.1h.8c0,0,.8.1.8.1h.8c0,0,.8.1.8.1h.8c0,0,.7.1.7.1h0s.8,0,.8,0h.8c0,0,.8.1.8.1h.8c0,0,.8.1.8.1h.8c0,0,.8.1.8.1h.8c0,0,.8.1.8.1h.8c0,0,.6.1.6.1h.2s.8,0,.8,0h.8c0,0,.8.1.8.1h.8c0,0,.8.1.8.1h.8c0,0,.8.1.8.1h.8c0,0,.8.1.8.1h.8c0,0,.2,0,.2,0h.6s.8.1.8.1h.8c0,0,.8.1.8.1h.8c0,0,.8.1.8.1h.8c0,0,.8.1.8.1h.8c0,0,.8.1.8.1h.8c0,0,.5,0,.5,0h.3s.8,0,.8,0h.8c0,0,.8.1.8.1h.8c0,0,.8.1.8.1h.8c0,0,.8.1.8.1h.8c0,0,.8.1.8.1h.8c0,0,.8.1.8.1h.5s.3,0,.3,0h.8c0,0,.8.1.8.1h.8c0,0,.8.1.8.1h.8c0,0,.8.1.8.1h.8c0,0,.8.1.8.1h.8c0,0,.8.1.8.1h.8c0,0,.7.1.7.1h0s.8,0,.8,0h.8c0,0,.8.1.8.1h.8c0,0,.8.1.8.1h.8c0,0,.8.1.8.1h.8c0,0,.8.1.8.1h.8c0,0,.8.1.8.1h.8c0,0,.4,0,.4,0h.4s.8,0,.8,0h.8c0,0,.8.1.8.1h.8c0,0,.8.1.8.1h.8c0,0,.8.1.8.1h.8c0,0,.8.1.8.1h.8c0,0,.8.1.8.1h.8c0,0,.3,0,.3,0h.5s.8,0,.8,0h.8c0,0,.8.1.8.1h.8c0,0,.8.1.8.1h.8c0,0,.8.1.8.1h.8c0,0,.8.1.8.1h.8c0,0,.8.1.8.1h.8c0,0,.3,0,.3,0h.5s.8,0,.8,0h.8c0,0,.8.1.8.1h.8c0,0,.8.1.8.1h.8c0,0,.8.1.8.1h.8c0,0,.8.1.8.1h.8c0,0,.8.1.8.1h.8c0,0,.7,0,.7,0h.1s.8,0,.8,0h.8c0,0,.8.1.8.1h.8c0,0,.8.1.8.1h.8c0,0,.8,0,.8,0h.8s.8,0,.8,0h.8s.8,0,.8,0h.8s.8,0,.8,0h.4s.3,0,.3,0h.8s.8,0,.8,0h.8s.8,0,.8,0h.8s.8,0,.8,0h.8s.8,0,.8,0h.8s.8,0,.8,0h.8s.8,0,.8,0h.8s.5,0,.5,0h.3s.8,0,.8,0h.8s.8,0,.8,0h.8s.8,0,.8,0h.8s.8,0,.8,0h.8s.8,0,.8,0h.8s.8,0,.8,0h.8s.8,0,.8,0h.8s0,0,0,0h.8s.8,0,.8,0h.8s.8,0,.8,0h.8s.8,0,.8,0h.8s.8,0,.8,0h.8s.8,0,.8,0h.8s.8,0,.8,0h.8s.8,0,.8,0h.6s.2,0,.2,0h.8s.8,0,.8,0h.8s.8,0,.8,0h.8s.8,0,.8,0h.8s.8,0,.8,0h.8s.8,0,.8,0h.8s.8,0,.8,0h.8s.8,0,.8,0h.6s.2,0,.2,0h.8s.8,0,.8,0h.8s.8,0,.8,0h.8s.8,0,.8,0h.8s.8,0,.8,0h.8s.8,0,.8,0h.8s.8,0,.8,0h.8s.8,0,.8,0h.8s.2,0,.2,0h.6Z"/>
  <path class="st1" d="M367.1,371.5h.8s.8,0,.8,0h.8s.8,0,.8,0h.8s.8,0,.8,0h.8s.8,0,.8,0h.8s.8,0,.8,0h.8s.8,0,.8,0h.8s.8,0,.8,0h.8s.8,0,.8,0h.8s.8,0,.8,0h.8s.8,0,.8,0h.8s.8,0,.8,0h.8s-.8-.6-.8-.6l-.8-.7h-.8l-.8-.7-.8-.7h-.8l-.8-.7-.8-.7h-.8l-.8-.7-.8-.7h-.8l-.8-.7-.8-.7h-.8l-.8-.7-.8-.7h-.8l-.8-.7-.8-.7h-.8l-.8-.7-.8-.7h-.8l-.8-.7-.8-.7h-.8l-.8-.7-.8-.7h-.8l-.8-.7h0s-.6,0-.6,0h-.2s-.8,0-.8,0h-.8s-.8,0-.8,0h-.8s-.8,0-.8,0h-.8s-.8,0-.8,0h-.8s-.8,0-.8,0h-.8s-.8,0-.8,0h-.8s-.8,0-.8,0h-.8s-.8,0-.8,0h-.2s-.6,0-.6,0h-.8s-.8,0-.8,0h-.8s-.8,0-.8,0h-.8s-.8,0-.8,0h-.8s-.8,0-.8,0h-.8s-.8,0-.8,0h-.8s-.8,0-.8,0h-.8s-.8,0-.8,0h-.2s-.6,0-.6,0h-.8s-.8,0-.8,0h-.8s-.8,0-.8,0h-.8s-.8,0-.8,0h-.8s-.8,0-.8,0h-.8s-.8,0-.8,0h-.8s-.8,0-.8,0h-.8s-.8,0-.8,0h0s-.8,0-.8,0h-.8s-.8,0-.8,0h-.8s-.8,0-.8,0h-.8s-.8,0-.8,0h-.8s-.8,0-.8,0h-.8s-.8,0-.8,0h-.8s-.8,0-.8,0h-.8s-.3,0-.3,0h-.5s-.8,0-.8,0h-.8s-.8,0-.8,0h-.8s-.8,0-.8,0h-.8s-.8,0-.8,0h-.8s-.8,0-.8,0h-.8s-.8,0-.8,0h-.8s-.8,0-.8,0h-.3s-.4,0-.4,0h-.8s-.8,0-.8,0h-.8s-.8,0-.8,0h-.8s-.8,0-.8,0h-.8s-.8,0-.8,0h-.8c0,0-.8-.1-.8-.1h-.8c0,0-.8-.1-.8-.1h-.8c0,0-.1,0-.1,0h-.7s-.8,0-.8,0h-.8c0,0-.8-.1-.8-.1h-.8c0,0-.8-.1-.8-.1h-.8c0,0-.8-.1-.8-.1h-.8c0,0-.8-.1-.8-.1h-.8c0,0-.8-.1-.8-.1h-.8c0,0-.5,0-.5,0h-.3s-.8,0-.8,0h-.8c0,0-.8-.1-.8-.1h-.8c0,0-.8-.1-.8-.1h-.8c0,0-.8-.1-.8-.1h-.8c0,0-.8-.1-.8-.1h-.8c0,0-.8-.1-.8-.1h-.8c0,0-.5,0-.5,0h-.3s-.8,0-.8,0h-.8c0,0-.8-.1-.8-.1h-.8c0,0-.8-.1-.8-.1h-.8c0,0-.8-.1-.8-.1h-.8c0,0-.8-.1-.8-.1h-.8c0,0-.8-.1-.8-.1h-.8c0,0-.4,0-.4,0h-.4s-.8,0-.8,0h-.8c0,0-.8-.1-.8-.1h-.8c0,0-.8-.1-.8-.1h-.8c0,0-.8-.1-.8-.1h-.8c0,0-.8-.1-.8-.1h-.8c0,0-.8-.1-.8-.1h-.8c0,0,0,0,0,0h-.7c0,0-.8-.1-.8-.1h-.8c0,0-.8-.1-.8-.1h-.8c0,0-.8-.1-.8-.1h-.8c0,0-.8-.1-.8-.1h-.8c0,0-.8-.1-.8-.1h-.8c0,0-.8-.1-.8-.1h-.3s-.5,0-.5,0h-.8c0,0-.8-.1-.8-.1h-.8c0,0-.8-.1-.8-.1h-.8c0,0-.8-.1-.8-.1h-.8c0,0-.8-.1-.8-.1h-.8c0,0-.8-.1-.8-.1h-.8c0,0-.3,0-.3,0h-.5s-.8,0-.8,0h-.8c0,0-.8-.1-.8-.1h-.8c0,0-.8-.1-.8-.1h-.8c0,0-.8-.1-.8-.1h-.8c0,0-.8-.1-.8-.1h-.8c0,0-.6-.1-.6-.1h-.2s-.8,0-.8,0h-.8c0,0-.8-.1-.8-.1h-.8c0,0-.8-.1-.8-.1h-.8c0,0-.8-.1-.8-.1h-.8c0,0-.8-.1-.8-.1h-.8c0,0-.2,0-.2,0h-.6c0,0-.8-.1-.8-.1h-.8c0,0-.8-.1-.8-.1h-.8c0,0-.8-.1-.8-.1h-.8c0,0-.8-.1-.8-.1h-.8c0,0-.8-.1-.8-.1h-.8c0,0,0,0,0,0h-.7c0,0-.8-.1-.8-.1h-.8c0,0-.8-.1-.8-.1h-.8c0,0-.8-.1-.8-.1h-.8c0,0-.8-.1-.8-.1h-.8c0,0-.8-.1-.8-.1h-.8c0,0-.4,0-.4,0h-.4s-.8,0-.8,0h-.8c0,0-.8-.1-.8-.1h-.8c0,0-.8-.1-.8-.1h-.8c0,0-.8-.1-.8-.1h-.8c0,0-.8-.1-.8-.1h-.8c0,0-.8-.1-.8-.1h-.2s-.6,0-.6,0h-.8c0,0-.8-.1-.8-.1h-.8c0,0-.3,0-.3,0l.3.2.8.7h.8l.8.7.8.7h.8l.8.7.8.7h.8l.8.7.8.7h.8l.8.7.8.7h.8l.8.7.8.7h.8l.8.7.8.7h.8l.8.7.8.7h.8l.8.7.8.7h.8l.8.7.8.7h.8l.8.7.8.7h.8l.8.7.8.7h.8l.8.7.8.7h.8l.8.7.2.2h.6s.8,0,.8,0h.8s.8,0,.8,0h.8s.8,0,.8,0h.8s.8,0,.8,0h.8s.8,0,.8,0h.8s.2,0,.2,0h.6s.8,0,.8,0h.8s.8,0,.8,0h.8s.8,0,.8,0h.8s.8,0,.8,0h.8s.8,0,.8,0h.8s.8,0,.8,0h.8s.8,0,.8,0h.8s.3,0,.3,0h.5s.8,0,.8,0h.8s.8,0,.8,0h.8s.8,0,.8,0h.8s.8,0,.8,0h.8s.8,0,.8,0h.8s.8,0,.8,0h.8s.8,0,.8,0h.8s.8,0,.8,0h0s.8,0,.8,0h.8s.8,0,.8,0h.8s.8,0,.8,0h.8s.8,0,.8,0h.8s.8,0,.8,0h.8s.8,0,.8,0h.8s.8,0,.8,0h.8s.8,0,.8,0h.8s0,0,0,0h.7s.8,0,.8,0h.8s.8,0,.8,0h.8s.8,0,.8,0h.8s.8,0,.8,0h.8s.8,0,.8,0h.8s.8,0,.8,0h.8s.8,0,.8,0h.8s.8,0,.8,0h.5s.3,0,.3,0h.8s.8,0,.8,0h.8s.8,0,.8,0h.8s.8,0,.8,0h.8s.8,0,.8,0h.8s.8,0,.8,0h.8s.8,0,.8,0h.8s.8,0,.8,0h.8s.8,0,.8,0h.6s.2,0,.2,0h.8s.8,0,.8,0h.8s.8,0,.8,0h.8s.8,0,.8,0h.8s.8,0,.8,0h.8s.8,0,.8,0h.8s.8,0,.8,0h.8s.8,0,.8,0h.8s.8,0,.8,0h.8s.3,0,.3,0h.4s.8,0,.8,0h.8s.8,0,.8,0h.8s.8,0,.8,0h.8s.8,0,.8,0h.8s.8,0,.8,0h.8s.8,0,.8,0h.8s.8,0,.8,0h.8s.8,0,.8,0h.8s.8,0,.8,0h.6s.2,0,.2,0h.8s.8,0,.8,0h.8s.8,0,.8,0h.8s.8,0,.8,0h.8s.8,0,.8,0h.8s.8,0,.8,0h.8s.8,0,.8,0h.8s.8,0,.8,0h.8s.8,0,.8,0h.8s.8,0,.8,0h.8s.7,0,.7,0h0s.8,0,.8,0h.8s.8,0,.8,0h.8s.8,0,.8,0h.8s.8,0,.8,0h.8s.8,0,.8,0h.8s.8,0,.8,0h.8s.8,0,.8,0h.8s.8,0,.8,0h.8s.8,0,.8,0h.8s.8,0,.8,0h.8s.8,0,.8,0h.5s.3,0,.3,0h.8s.8,0,.8,0h.8s.8,0,.8,0h.8s.8,0,.8,0h.8s.8,0,.8,0h.8s.8,0,.8,0h.8s.8,0,.8,0h.8s.8,0,.8,0h.8s.8,0,.8,0h.8s.8,0,.8,0h.8s.8,0,.8,0h.8s.8,0,.8,0h.5s.3,0,.3,0Z"/>
  <path class="st25" d="M360.7,384.5h.8s.8,0,.8,0h.8s.8,0,.8,0h.8s.8,0,.8,0h.8s.8,0,.8,0h.8s.8,0,.8,0h.8s.8,0,.8,0h.8s.8,0,.8,0h.8s.8,0,.8,0h.8s.8,0,.8,0h.8s.8,0,.8,0h.8s.8,0,.8,0h.8s.8,0,.8,0h.8s.8,0,.8,0h.8s.8,0,.8,0h.8s.8,0,.8,0h.8s.8,0,.8,0h.8s.8,0,.8,0h.8s.8,0,.8,0h.8s.8,0,.8,0h.8s.8,0,.8,0h.8s.8,0,.8,0h.8s.8,0,.8,0h.8s.8,0,.8,0h.8s.8,0,.8,0h.8s.8,0,.8,0h.8s.8,0,.8,0h.8s.8,0,.8,0h.8s.8,0,.8,0h.8s.8,0,.8,0h.8s.7,0,.7,0l-.7-.6h-.8l-.8-.7-.8-.7h-.8l-.8-.7-.8-.7h-.8l-.8-.7-.8-.7h-.8l-.8-.7-.8-.7h-.8l-.8-.7-.8-.7h-.8l-.8-.7-.8-.7h-.8l-.8-.7-.8-.7h-.8l-.8-.7-.8-.7h-.8l-.8-.7-.8-.7h-.8s-.8,0-.8,0h-.8s-.8,0-.8,0h-.8s-.8,0-.8,0h-.8s-.8,0-.8,0h-.8s-.8,0-.8,0h-.8s-.8,0-.8,0h-.8s-.8,0-.8,0h-.8s-.8,0-.8,0h-.8s-.8,0-.8,0h-.8s-.8,0-.8,0h-.8s-.8,0-.8,0h-.8s-.8,0-.8,0h-.3s-.5,0-.5,0h-.8s-.8,0-.8,0h-.8s-.8,0-.8,0h-.8s-.8,0-.8,0h-.8s-.8,0-.8,0h-.8s-.8,0-.8,0h-.8s-.8,0-.8,0h-.8s-.8,0-.8,0h-.8s-.8,0-.8,0h-.8s-.8,0-.8,0h-.8s-.8,0-.8,0h-.8s-.8,0-.8,0h-.3s-.5,0-.5,0h-.8s-.8,0-.8,0h-.8s-.8,0-.8,0h-.8s-.8,0-.8,0h-.8s-.8,0-.8,0h-.8s-.8,0-.8,0h-.8s-.8,0-.8,0h-.8s-.8,0-.8,0h-.8s-.8,0-.8,0h-.8s-.8,0-.8,0h-.8s-.8,0-.8,0h-.8s0,0,0,0h-.7s-.8,0-.8,0h-.8s-.8,0-.8,0h-.8s-.8,0-.8,0h-.8s-.8,0-.8,0h-.8s-.8,0-.8,0h-.8s-.8,0-.8,0h-.8s-.8,0-.8,0h-.8s-.8,0-.8,0h-.8s-.8,0-.8,0h-.8s-.8,0-.8,0h-.2s-.6,0-.6,0h-.8s-.8,0-.8,0h-.8s-.8,0-.8,0h-.8s-.8,0-.8,0h-.8s-.8,0-.8,0h-.8s-.8,0-.8,0h-.8s-.8,0-.8,0h-.8s-.8,0-.8,0h-.8s-.8,0-.8,0h-.8s-.4,0-.4,0h-.3s-.8,0-.8,0h-.8s-.8,0-.8,0h-.8s-.8,0-.8,0h-.8s-.8,0-.8,0h-.8s-.8,0-.8,0h-.8s-.8,0-.8,0h-.8s-.8,0-.8,0h-.8s-.8,0-.8,0h-.8s-.8,0-.8,0h-.2s-.6,0-.6,0h-.8s-.8,0-.8,0h-.8s-.8,0-.8,0h-.8s-.8,0-.8,0h-.8s-.8,0-.8,0h-.8s-.8,0-.8,0h-.8s-.8,0-.8,0h-.8s-.8,0-.8,0h-.8s-.8,0-.8,0h-.3s-.5,0-.5,0h-.8s-.8,0-.8,0h-.8s-.8,0-.8,0h-.8s-.8,0-.8,0h-.8s-.8,0-.8,0h-.8s-.8,0-.8,0h-.8s-.8,0-.8,0h-.8s-.8,0-.8,0h-.8s-.7,0-.7,0h0s-.8,0-.8,0h-.8s-.8,0-.8,0h-.8s-.8,0-.8,0h-.8s-.8,0-.8,0h-.8s-.8,0-.8,0h-.8s-.8,0-.8,0h-.8s-.8,0-.8,0h-.8s-.8,0-.8,0h-.8s0,0,0,0h-.8s-.8,0-.8,0h-.8s-.8,0-.8,0h-.8s-.8,0-.8,0h-.8s-.8,0-.8,0h-.8s-.8,0-.8,0h-.8s-.8,0-.8,0h-.8s-.8,0-.8,0h-.8s-.5,0-.5,0h-.3s-.8,0-.8,0h-.8s-.8,0-.8,0h-.8s-.8,0-.8,0h-.8s-.8,0-.8,0h-.8s-.8,0-.8,0h-.8s-.8,0-.8,0h-.8s-.8,0-.8,0h-.8s-.6,0-.6,0h-.2s-.8,0-.8,0h-.8s-.8,0-.8,0h-.8s-.8,0-.8,0h-.8s-.8,0-.8,0h-.8s-.8,0-.8,0h-.8s-.6,0-.6,0l.6.5h.8l.8.7.8.7h.8l.8.7.8.7h.8l.8.7.8.7h.8l.8.7.8.7h.8l.8.7.8.7h.8l.8.7.8.7h.8l.8.7.8.7h.8l.8.7.8.7h.8l.8.7.8.7h.8l.8.7.8.7h.8l.8.7.8.7h.8l.8.7.8.7h.8l.8.7.7.6h.1s.8,0,.8,0h.8s.8,0,.8,0h.8s.8,0,.8,0h.5s.3,0,.3,0h.8s.8,0,.8,0h.8s.8,0,.8,0h.8s.8,0,.8,0h.8s.8,0,.8,0h.8s.8,0,.8,0h.8s.8,0,.8,0h.8s.8,0,.8,0h.8s.8,0,.8,0h.8s.8,0,.8,0h.8s.8,0,.8,0h.8s.8,0,.8,0h.8s.8,0,.8,0h.8s.8,0,.8,0h.8s.8,0,.8,0h.8s.8,0,.8,0h.8s.8,0,.8,0h.8s.8,0,.8,0h.8s.8,0,.8,0h.8s.8,0,.8,0h.8s.1,0,.1,0h.7s.8,0,.8,0h.8s.8,0,.8,0h.8s.8,0,.8,0h.8s.8,0,.8,0h.8s.8,0,.8,0h.8s.8,0,.8,0h.8s.8,0,.8,0h.8s.8,0,.8,0h.8s.8,0,.8,0h.8s.8,0,.8,0h.8s.8,0,.8,0h.8s.8,0,.8,0h.8s.8,0,.8,0h.8s.8,0,.8,0h.8s.8,0,.8,0h.8s.8,0,.8,0h.8s.8,0,.8,0h.8s.8,0,.8,0h.8s.8,0,.8,0h.8s.8,0,.8,0h.8s.8,0,.8,0h.8s.8,0,.8,0h.8s.8,0,.8,0h0s.7,0,.7,0h.8s.8,0,.8,0h.8s.8,0,.8,0h.8s.8,0,.8,0h.8s.8,0,.8,0h.8s.8,0,.8,0h.8s.8,0,.8,0h.8s.8,0,.8,0h.8s.8,0,.8,0h.8s.8,0,.8,0h.8s.8,0,.8,0h.8s.8,0,.8,0h.8s.8,0,.8,0h.8s.8,0,.8,0h.8s.8,0,.8,0h.8s.8,0,.8,0h.8s.8,0,.8,0h.8s.8,0,.8,0h.8s.8,0,.8,0h.8s.8,0,.8,0h.8s.8,0,.8,0h.8s.8,0,.8,0h.8s.8,0,.8,0h.8s.8,0,.8,0h.8s.8,0,.8,0h.8s.8,0,.8,0h.8s.8,0,.8,0h.7s0,0,0,0Z"/>
  <path class="st19" d="M278.5,400.6h.8s.8,0,.8,0h.8s.8,0,.8,0h.8s.8,0,.8,0h.8s.8,0,.8,0h.8s.8,0,.8,0h.8s.8,0,.8,0h.8s.8,0,.8,0h.8s.8,0,.8,0h.8s.8,0,.8,0h.8s.8,0,.8,0h.5s.3,0,.3,0h.8s.8,0,.8,0h.8s.8,0,.8,0h.8s.8,0,.8,0h.8s.8,0,.8,0h.8s.8,0,.8,0h.8s.8,0,.8,0h.8s.8,0,.8,0h.8s.8,0,.8,0h.8s.8,0,.8,0h.8s.8,0,.8,0h.8s.8,0,.8,0h.8s.8,0,.8,0h.8s.8,0,.8,0h.8s.8,0,.8,0h.8s.8,0,.8,0h.8s.8,0,.8,0h.8s.8,0,.8,0h.8s.8,0,.8,0h.8s.8,0,.8,0h.8s.8,0,.8,0h.8s.8,0,.8,0h.8s.8,0,.8,0h.8s.8,0,.8,0h.8s.8,0,.8,0h.8s.8,0,.8,0h.8s.8,0,.8,0h.8s.8,0,.8,0h.6s.2,0,.2,0h.8s.8,0,.8,0h.8s.8,0,.8,0h.8s.8,0,.8,0h.8s.8,0,.8,0h.8s.8,0,.8,0h.8s.8,0,.8,0h.8s.8,0,.8,0h.8s.8,0,.8,0h.8s.8,0,.8,0h.8s.8,0,.8,0h.8s.8,0,.8,0h.8s.8,0,.8,0h.8s.8,0,.8,0h.8s.8,0,.8,0h.8s.8,0,.8,0h.8s.8,0,.8,0h.8s.8,0,.8,0h.8s.8,0,.8,0h.8s.8,0,.8,0h.8s.8,0,.8,0h.8s.8,0,.8,0h.8s.8,0,.8,0h.8s.8,0,.8,0h.8s.8,0,.8,0h.8s.8,0,.8,0h.8s.8,0,.8,0h.8s.8,0,.8,0h.8s.8,0,.8,0h.8s.8,0,.8,0h.8s.8,0,.8,0h.8s.8,0,.8,0h.8s.8,0,.8,0h.8s.8,0,.8,0h.7s0,0,0,0h.8s.8,0,.8,0h.8s.8,0,.8,0h.8s.8,0,.8,0h.8s.8,0,.8,0h.8s.8,0,.8,0h.8s.8,0,.8,0h.8s.8,0,.8,0h.8s.8,0,.8,0h.8s.8,0,.8,0h.8s.8,0,.8,0h.8s.8,0,.8,0h.8s.8,0,.8,0h.8s.8,0,.8,0h.8s.8,0,.8,0h.8s.8,0,.8,0h.8s.8,0,.8,0h.8s.8,0,.8,0h.8s.8,0,.8,0h.8s.8,0,.8,0h.8s.8,0,.8,0h.8s.8,0,.8,0h.8s.8,0,.8,0h.8s.8,0,.8,0h.8s.8,0,.8,0h.8s.8,0,.8,0h.3s-.3-.3-.3-.3h-.8l-.8-.7-.8-.7h-.8l-.8-.7-.8-.7h-.8l-.8-.7-.8-.7h-.8l-.8-.7-.8-.7h-.8l-.8-.7-.8-.7h-.8l-.8-.7-.8-.7h-.8l-.8-.7-.8-.7h-.8l-.8-.7-.8-.7h-.8l-.8-.7-.8-.7h-.8l-.8-.7h0s-.7,0-.7,0h-.8s-.8,0-.8,0h-.8s-.8,0-.8,0h-.8s-.8,0-.8,0h-.8s-.8,0-.8,0h-.8s-.8,0-.8,0h-.8s-.8,0-.8,0h-.8s-.8,0-.8,0h-.8s-.8,0-.8,0h-.8s-.8,0-.8,0h-.8s-.8,0-.8,0h-.8s-.8,0-.8,0h-.8s-.8,0-.8,0h-.8s-.8,0-.8,0h-.8s-.8,0-.8,0h-.8s-.8,0-.8,0h-.8s-.8,0-.8,0h-.8s-.8,0-.8,0h-.8s-.8,0-.8,0h-.8s-.8,0-.8,0h-.8s-.8,0-.8,0h-.8s-.8,0-.8,0h-.8s-.8,0-.8,0h-.8s-.8,0-.8,0h-.8s-.8,0-.8,0h-.8s-.8,0-.8,0h-.8s-.8,0-.8,0h-.8s-.8,0-.8,0h-.8s-.8,0-.8,0h-.8s-.8,0-.8,0h-.8s0,0,0,0h-.7s-.8,0-.8,0h-.8s-.8,0-.8,0h-.8s-.8,0-.8,0h-.8s-.8,0-.8,0h-.8s-.8,0-.8,0h-.8s-.8,0-.8,0h-.8s-.8,0-.8,0h-.8s-.8,0-.8,0h-.8s-.8,0-.8,0h-.8s-.8,0-.8,0h-.8s-.8,0-.8,0h-.8s-.8,0-.8,0h-.8s-.8,0-.8,0h-.8s-.8,0-.8,0h-.8s-.8,0-.8,0h-.8s-.8,0-.8,0h-.8s-.8,0-.8,0h-.8s-.8,0-.8,0h-.8s-.8,0-.8,0h-.8s-.8,0-.8,0h-.8s-.8,0-.8,0h-.8s-.8,0-.8,0h-.8s-.8,0-.8,0h-.8s-.8,0-.8,0h-.8s-.8,0-.8,0h-.8s-.8,0-.8,0h-.8s-.7,0-.7,0h0s-.8,0-.8,0h-.8s-.8,0-.8,0h-.8s-.8,0-.8,0h-.8s-.8,0-.8,0h-.8s-.8,0-.8,0h-.8s-.8,0-.8,0h-.8s-.8,0-.8,0h-.8s-.8,0-.8,0h-.8s-.8,0-.8,0h-.8s-.8,0-.8,0h-.8s-.8,0-.8,0h-.8s-.8,0-.8,0h-.8s-.8,0-.8,0h-.8s-.8,0-.8,0h-.8s-.8,0-.8,0h-.8s-.8,0-.8,0h-.8s-.8,0-.8,0h-.8s-.8,0-.8,0h-.8s-.8,0-.8,0h-.8s-.8,0-.8,0h-.8s-.8,0-.8,0h-.8s-.8,0-.8,0h-.8s-.8,0-.8,0h-.7s-.1,0-.1,0h-.8s-.8,0-.8,0h-.8s-.8,0-.8,0h-.8s-.8,0-.8,0h-.8s-.8,0-.8,0h-.8s-.8,0-.8,0h-.8s-.8,0-.8,0h-.8s-.8,0-.8,0h-.8s-.8,0-.8,0h-.8s-.8,0-.8,0h-.8s-.8,0-.8,0h-.8s-.8,0-.8,0h-.8s-.8,0-.8,0h-.8s-.8,0-.8,0h-.8s-.8,0-.8,0h-.8s-.8,0-.8,0h-.8s-.8,0-.8,0h-.8s-.8,0-.8,0h-.8s-.8,0-.8,0h-.8s-.8,0-.8,0h-.8s-.3,0-.3,0h-.5s-.8,0-.8,0h-.8s-.8,0-.8,0h-.8s-.8,0-.8,0h-.1s.1.1.1.1h.8l.8.7.8.7h.8l.8.7.8.7h.8l.8.7.8.7h.8l.8.7.8.7h.8l.8.7.8.7h.8l.8.7.8.7h.8l.8.7.8.7h.8l.8.7.8.7h.8l.8.7.8.7h.8l.8.7.8.7h.8l.8.7.8.7h.8l.8.7.8.7h.8l.8.7.8.7h.8l.3.3h.4Z"/>
  <path class="st28" d="M309.8,418.8h.3s.8,0,.8,0h.8s.8,0,.8,0h.8s.8,0,.8,0h.8s.8,0,.8,0h.8s.8,0,.8,0h.8s.8,0,.8,0h.8s.8,0,.8,0h.8s.1,0,.1,0h.7s.8,0,.8,0h.8s.8,0,.8,0h.8s.8,0,.8,0h.8s.8,0,.8,0h.8s.8,0,.8,0h.8s.8,0,.8,0h.8s.8,0,.8,0h.8s.3,0,.3,0h.4s.8,0,.8,0h.8s.8,0,.8,0h.8s.8,0,.8,0h.8s.8,0,.8,0h.8s.8,0,.8,0h.8s.8,0,.8,0h.8s.8,0,.8,0h.8s.8,0,.8,0h.4s.3,0,.3,0h.8s.8,0,.8,0h.8s.8,0,.8,0h.8s.8,0,.8,0h.8s.8,0,.8,0h.8s.8,0,.8,0h.8s.8,0,.8,0h.8s.8,0,.8,0h.8s.8,0,.8,0h.4s.3,0,.3,0h.8s.8,0,.8,0h.8s.8,0,.8,0h.8s.8,0,.8,0h.8s.8,0,.8,0h.8s.8,0,.8,0h.8s.8,0,.8,0h.8s.8,0,.8,0h.8s.8,0,.8,0h.8s.4,0,.4,0h.4s.8,0,.8,0h.8s.8,0,.8,0h.8s.8,0,.8,0h.8s.8,0,.8,0h.8s.8,0,.8,0h.8s.8,0,.8,0h.8s.8,0,.8,0h.8s.8,0,.8,0h.8s.8,0,.8,0h.8s.4,0,.4,0h.4s.8,0,.8,0h.8s.8,0,.8,0h.8s.8,0,.8,0h.8s.8,0,.8,0h.8s.8,0,.8,0h.8s.8,0,.8,0h.8s.8,0,.8,0h.8s.8,0,.8,0h.8s.8,0,.8,0h.8s.8,0,.8,0h.4s.4,0,.4,0h.8s.8,0,.8,0h.8s.8,0,.8,0h.8s.8,0,.8,0h.8s.8,0,.8,0h.8s.8,0,.8,0h.8s.8,0,.8,0h.8s.8,0,.8,0h.8s.8,0,.8,0h.8s.8,0,.8,0h.8s.8,0,.8,0h.6s.2,0,.2,0h.8s.8,0,.8,0h.8s.8,0,.8,0h.8s.8,0,.8,0h.8s.8,0,.8,0h.8s.8,0,.8,0h.8s.8,0,.8,0h.8s.8,0,.8,0h.8s.8,0,.8,0h.8s.8,0,.8,0h.8s.8,0,.8,0h.8s.8,0,.8,0h.3s.5,0,.5,0h.8s.8,0,.8,0h.8s.8,0,.8,0h.8s.8,0,.8,0h.8s.8,0,.8,0h.8s.8,0,.8,0h.8s.8,0,.8,0h.8s.8,0,.8,0h.8s.8,0,.8,0h.8s.8,0,.8,0h.8s.1,0,.1,0h-.1c0-.1-.8-.1-.8-.1l-.8-.7-.8-.7h-.8l-.8-.7-.8-.7h-.8l-.8-.7-.8-.7h-.8l-.8-.7-.8-.7h-.8l-.8-.7-.8-.7h-.8l-.8-.7-.8-.7h-.8l-.8-.7-.8-.7h-.8l-.8-.7-.8-.7h-.8l-.8-.7-.8-.7h-.8l-.8-.7-.5-.4h-.3s-.8,0-.8,0h-.8s-.8,0-.8,0h-.8s-.8,0-.8,0h-.8s-.8,0-.8,0h-.8s-.8,0-.8,0h-.8s-.8,0-.8,0h-.8s-.8,0-.8,0h-.8s-.8,0-.8,0h-.8s-.8,0-.8,0h-.8s-.8,0-.8,0h-.8s-.8,0-.8,0h-.8s-.8,0-.8,0h-.8s-.8,0-.8,0h-.8s-.8,0-.8,0h-.8s-.8,0-.8,0h-.8s-.8,0-.8,0h-.8s-.8,0-.8,0h-.8s-.8,0-.8,0h-.8s-.8,0-.8,0h-.8s-.8,0-.8,0h-.8s-.8,0-.8,0h-.8s-.8,0-.8,0h-.8s-.8,0-.8,0h-.8s-.8,0-.8,0h-.8s-.8,0-.8,0h-.8s0,0,0,0h-.7s-.8,0-.8,0h-.8s-.8,0-.8,0h-.8s-.8,0-.8,0h-.8s-.8,0-.8,0h-.8s-.8,0-.8,0h-.8s-.8,0-.8,0h-.8s-.8,0-.8,0h-.8s-.8,0-.8,0h-.8s-.8,0-.8,0h-.8s-.8,0-.8,0h-.8s-.8,0-.8,0h-.8s-.8,0-.8,0h-.8s-.8,0-.8,0h-.8s-.8,0-.8,0h-.8s-.8,0-.8,0h-.8s-.8,0-.8,0h-.8s-.8,0-.8,0h-.8s-.8,0-.8,0h-.8s-.8,0-.8,0h-.8s-.8,0-.8,0h-.8s-.8,0-.8,0h-.8s-.8,0-.8,0h-.8s-.8,0-.8,0h-.8s-.8,0-.8,0h-.8s-.8,0-.8,0h-.8s-.8,0-.8,0h-.8s-.8,0-.8,0h-.8s-.8,0-.8,0h-.8s-.8,0-.8,0h-.8s-.8,0-.8,0h-.8s-.8,0-.8,0h-.8s-.8,0-.8,0h-.8s-.8,0-.8,0h-.8s-.2,0-.2,0h-.6s-.8,0-.8,0h-.8s-.8,0-.8,0h-.8s-.8,0-.8,0h-.8s-.8,0-.8,0h-.8s-.8,0-.8,0h-.8s-.8,0-.8,0h-.8s-.8,0-.8,0h-.8s-.8,0-.8,0h-.8s-.8,0-.8,0h-.8s-.8,0-.8,0h-.8s-.8,0-.8,0h-.8s-.8,0-.8,0h-.8s-.8,0-.8,0h-.8s-.8,0-.8,0h-.8s-.8,0-.8,0h-.8s-.8,0-.8,0h-.8s-.8,0-.8,0h-.8s-.8,0-.8,0h-.8s-.8,0-.8,0h-.8s-.8,0-.8,0h-.8s-.8,0-.8,0h-.8s-.8,0-.8,0h-.8s-.8,0-.8,0h-.8s-.8,0-.8,0h-.8s-.8,0-.8,0h-.8s-.8,0-.8,0h-.8s-.8,0-.8,0h-.8s-.3,0-.3,0h-.5s-.8,0-.8,0h-.8s-.8,0-.8,0h-.8s-.8,0-.8,0h-.8s-.8,0-.8,0h-.8s-.8,0-.8,0h-.8s-.8,0-.8,0h-.8s-.8,0-.8,0h-.8s-.8,0-.8,0h-.8s-.8,0-.8,0h-.8s-.8,0-.8,0h-.8s-.4,0-.4,0l.4.4.8.7h.8l.8.7.8.7h.8l.8.7.8.7h.8l.8.7.8.7h.8l.8.7.8.7h.8l.8.7.8.7h.8l.8.7.8.7h.8l.8.7.8.7h.8l.8.7.8.7h.8l.8.7.8.7h.8l.8.7.8.7h.8l.8.7.8.7h.8l.8.7.8.7h.8l.8.7h0s.4,0,.4,0Z"/>
  <path class="st22" d="M341,437h.8c0,0,.8-.2.8-.2h.8c0,0,.8-.2.8-.2h.8c0,0,.3-.1.3-.1h.5s.8-.1.8-.1h.8c0,0,.8-.2.8-.2h.8c0,0,.8-.2.8-.2h.8c0,0,.8-.2.8-.2h.8c0,0,0,0,0,0h.7c0,0,.8-.1.8-.1h.8c0,0,.8-.2.8-.2h.8c0,0,.8-.2.8-.2h.8c0,0,.8-.2.8-.2h.8c0,0,0,0,0,0h.7c0,0,.8-.1.8-.1h.8c0,0,.8-.1.8-.1h.8c0,0,.8-.1.8-.1h.8c0,0,.8-.1.8-.1h.8c0,0,.3-.1.3-.1h.5s.8-.1.8-.1h.8c0,0,.8-.1.8-.1h.8c0,0,.8-.1.8-.1h.8c0,0,.8-.1.8-.1h.8c0,0,.7-.1.7-.1h0s.8,0,.8,0h.8c0,0,.8-.1.8-.1h.8c0,0,.8-.1.8-.1h.8c0,0,.8-.1.8-.1h.8c0,0,.8-.1.8-.1h.6c0,0,.2,0,.2,0h.8c0,0,.8-.1.8-.1h.8c0,0,.8-.1.8-.1h.8c0,0,.8-.1.8-.1h.8c0,0,.8-.1.8-.1h.8c0,0,.7-.1.7-.1h0s.8,0,.8,0h.8c0,0,.8-.1.8-.1h.8c0,0,.8-.1.8-.1h.8c0,0,.8-.1.8-.1h.8c0,0,.8-.1.8-.1h.8c0,0,.3,0,.3,0h.5s.8-.1.8-.1h.8c0,0,.8-.1.8-.1h.8c0,0,.8-.1.8-.1h.8c0,0,.8-.1.8-.1h.8c0,0,.8-.1.8-.1h.8c0,0,0,0,0,0h.7c0,0,.8-.1.8-.1h.8c0,0,.8-.1.8-.1h.8c0,0,.8-.1.8-.1h.8c0,0,.8-.1.8-.1h.8c0,0,.8-.1.8-.1h.8c0,0,.4,0,.4,0h.4s.8,0,.8,0h.8c0,0,.8-.1.8-.1h.8c0,0,.8-.1.8-.1h.8c0,0,.8-.1.8-.1h.8c0,0,.8-.1.8-.1h.8c0,0,.8-.1.8-.1h.2s.6,0,.6,0h.8c0,0,.8-.1.8-.1h.8c0,0,.8-.1.8-.1h.8c0,0,.8-.1.8-.1h.8c0,0,.8-.1.8-.1h.8c0,0,.8-.1.8-.1h.8c0,0,.4,0,.4,0h.3s.8,0,.8,0h.8c0,0,.8-.1.8-.1h.8c0,0,.8-.1.8-.1h.8c0,0,.8-.1.8-.1h.8c0,0,.8-.1.8-.1h.8c0,0,.8-.1.8-.1h.8c0,0,.2,0,.2,0h.6s.8,0,.8,0h.8c0,0,.8-.1.8-.1h.8c0,0,.8-.1.8-.1h.8c0,0,.8-.1.8-.1h.8c0,0,.8-.1.8-.1h.8c0,0,.8-.1.8-.1h.8c0,0,.4,0,.4,0h.4s.8,0,.8,0h.8c0,0,.8-.1.8-.1h.8c0,0,.8-.1.8-.1h.8s.8,0,.8,0h.8s.8,0,.8,0h.8s.8,0,.8,0h.8s.8,0,.8,0h.2s.6,0,.6,0h.8s.8,0,.8,0h.8s.8,0,.8,0h.8s.8,0,.8,0h.8s.8,0,.8,0h.8s.8,0,.8,0h.8s.8,0,.8,0h.8s.5,0,.5,0h.3s.8,0,.8,0h.7s-.7-.6-.7-.6h-.8l-.8-.7-.8-.7h-.8l-.8-.7-.8-.7h-.8l-.8-.7-.8-.7h-.8l-.8-.7-.8-.7h-.8l-.8-.7-.8-.7h-.8l-.8-.7-.8-.7h-.8l-.8-.7-.8-.7h-.8l-.8-.7-.8-.7h-.8l-.8-.7-.8-.7h-.8l-.8-.7-.7-.6h-.1s-.8,0-.8,0h-.8s-.8,0-.8,0h-.8s-.8,0-.8,0h-.8s-.8,0-.8,0h-.8s-.8,0-.8,0h-.8s-.8,0-.8,0h-.8s-.8,0-.8,0h-.8s-.8,0-.8,0h-.8s-.8,0-.8,0h-.8s-.8,0-.8,0h-.5s-.3,0-.3,0h-.8s-.8,0-.8,0h-.8s-.8,0-.8,0h-.8s-.8,0-.8,0h-.8s-.8,0-.8,0h-.8s-.8,0-.8,0h-.8s-.8,0-.8,0h-.8s-.8,0-.8,0h-.8s-.8,0-.8,0h-.8s-.8,0-.8,0h-.8s-.8,0-.8,0h-.8s-.8,0-.8,0h-.2s-.6,0-.6,0h-.8s-.8,0-.8,0h-.8s-.8,0-.8,0h-.8s-.8,0-.8,0h-.8s-.8,0-.8,0h-.8s-.8,0-.8,0h-.8s-.8,0-.8,0h-.8s-.8,0-.8,0h-.8s-.8,0-.8,0h-.8s-.8,0-.8,0h-.8s-.8,0-.8,0h-.4s-.4,0-.4,0h-.8s-.8,0-.8,0h-.8s-.8,0-.8,0h-.8s-.8,0-.8,0h-.8s-.8,0-.8,0h-.8s-.8,0-.8,0h-.8s-.8,0-.8,0h-.8s-.8,0-.8,0h-.8s-.8,0-.8,0h-.8s-.8,0-.8,0h-.8s-.4,0-.4,0h-.4s-.8,0-.8,0h-.8s-.8,0-.8,0h-.8s-.8,0-.8,0h-.8s-.8,0-.8,0h-.8s-.8,0-.8,0h-.8s-.8,0-.8,0h-.8s-.8,0-.8,0h-.8s-.8,0-.8,0h-.8s-.8,0-.8,0h-.8s-.4,0-.4,0h-.4s-.8,0-.8,0h-.8s-.8,0-.8,0h-.8s-.8,0-.8,0h-.8s-.8,0-.8,0h-.8s-.8,0-.8,0h-.8s-.8,0-.8,0h-.8s-.8,0-.8,0h-.8s-.8,0-.8,0h-.8s-.8,0-.8,0h-.3s-.4,0-.4,0h-.8s-.8,0-.8,0h-.8s-.8,0-.8,0h-.8s-.8,0-.8,0h-.8s-.8,0-.8,0h-.8s-.8,0-.8,0h-.8s-.8,0-.8,0h-.8s-.8,0-.8,0h-.8s-.8,0-.8,0h-.3s-.4,0-.4,0h-.8s-.8,0-.8,0h-.8s-.8,0-.8,0h-.8s-.8,0-.8,0h-.8s-.8,0-.8,0h-.8s-.8,0-.8,0h-.8s-.8,0-.8,0h-.8s-.8,0-.8,0h-.8s-.4,0-.4,0h-.3s-.8,0-.8,0h-.8s-.8,0-.8,0h-.8s-.8,0-.8,0h-.8s-.8,0-.8,0h-.8s-.8,0-.8,0h-.8s-.8,0-.8,0h-.8s-.8,0-.8,0h-.8s-.7,0-.7,0h-.1s-.8,0-.8,0h-.8s-.8,0-.8,0h-.8s-.8,0-.8,0h-.8s-.8,0-.8,0h-.8s-.8,0-.8,0h-.8s-.8,0-.8,0h-.8s-.8,0-.8,0h-.8s-.3,0-.3,0h-.4s.8.7.8.7h.8l.8.7.8.7h.8l.8.7.8.7h.8l.8.7.8.7h.8l.8.7.8.7h.8l.8.7.8.7h.8l.8.7.8.7h.8l.8.7.8.7h.8l.8.7.8.7h.8l.8.7.8.7h.8l.8.7.8.7h.8l.8.7.8.7h.8l.8.7.8.7h.8l.8.7.5.5h.3Z"/>
  <path class="st30" d="M366.3,451.6h33.2c0,0,.8-.2.8-.2h.8c0,0,.8-.2.8-.2h.8c0,0,.8-.2.8-.2h.8c0,0,.2-.1.2-.1h.6c0,0,.8-.2.8-.2h.8c0,0,.8-.2.8-.2h.8c0,0,.8-.2.8-.2h.8c0,0,.2-.1.2-.1h.6c0,0,.8-.2.8-.2h.8c0,0,.8-.2.8-.2h.8c0,0,.8-.2.8-.2h.8c0,0,.4-.1.4-.1h.4s.8-.1.8-.1h.8c0,0,.8-.2.8-.2h.8c0,0,.8-.2.8-.2h.8c0,0,.7-.2.7-.2h0s.8,0,.8,0h.8c0,0,.8-.2.8-.2h.8c0,0,.8-.2.8-.2h.8c0,0,.8-.2.8-.2h.4s.4,0,.4,0h.8c0,0,.8-.2.8-.2h.8c0,0,.8-.2.8-.2h.8c0,0,.8-.2.8-.2h.8c0,0,.2-.1.2-.1h.6c0,0,.8-.2.8-.2h.8c0,0,.8-.2.8-.2h.8c0,0,.8-.2.8-.2h.8c0,0,.8-.2.8-.2h.2s.6,0,.6,0h.8c0,0,.8-.2.8-.2h.8c0,0,.8-.2.8-.2h.8c0,0,.8-.2.8-.2h.8c0,0,.3-.1.3-.1h.5c0,0,.8-.1.8-.1h.8c0,0,.8-.2.8-.2h.8c0,0,.8-.2.8-.2h.8c0,0,.8-.2.8-.2h.5c0,0,.2,0,.2,0h.8c0,0,.8-.2.8-.2h.8c0,0,.8-.2.8-.2h.8c0,0,.8-.2.8-.2h.8c0,0,.8-.2.8-.2h.2s.6,0,.6,0h.8c0,0,.8-.2.8-.2h.8c0,0,.8-.2.8-.2h.8c0,0,.8-.2.8-.2h.8c0,0,.8-.2.8-.2h0s.8,0,.8,0h.8c0,0,.8-.2.8-.2h.8c0,0,.8-.2.8-.2h.8c0,0,.8-.2.8-.2h.8c0,0,.8-.2.8-.2h0s.8,0,.8,0h.8c0,0,.8-.1.8-.1h.8c0,0,.8-.1.8-.1h.8c0,0,.8-.1.8-.1h.8c0,0,.8-.1.8-.1h.2s.6,0,.6,0h.8c0,0,.8-.1.8-.1h.8c0,0,.8-.1.8-.1h.8c0,0,.8-.1.8-.1h.8c0,0,.8-.1.8-.1h.6c0,0,.2,0,.2,0h.8c0,0,.8-.1.8-.1h.8c0,0,.8-.1.8-.1h.8c0,0,.8-.1.8-.1h.8c0,0,.8-.1.8-.1h.8c0,0,.4-.1.4-.1h.4s.8-.1.8-.1h.8c0,0,.8-.1.8-.1h.8c0,0,.8-.1.8-.1h.8c0,0,.8-.1.8-.1h.8c0,0,.8-.1.8-.1h.4s-.4,0-.4,0l-.8-.7-.8-.7h-.8l-.8-.7-.8-.7h-.8l-.8-.7-.8-.7h-.8l-.8-.7-.8-.7h-.8l-.8-.7-.8-.7h-.8l-.8-.7-.8-.7h-.8l-.8-.7-.8-.7h-.8l-.8-.7-.8-.7h-.8l-.8-.7-.8-.7h-.8l-.8-.7-.8-.7h-.8l-.8-.7h-.1c0-.1-.7,0-.7,0h-.8s-.3,0-.3,0h-.5s-.8,0-.8,0h-.8s-.8,0-.8,0h-.8s-.8,0-.8,0h-.8s-.8,0-.8,0h-.8s-.8,0-.8,0h-.8s-.8,0-.8,0h-.8s-.8,0-.8,0h-.6s-.2,0-.2,0h-.8s-.8,0-.8,0h-.8s-.8,0-.8,0h-.8s-.8,0-.8,0h-.8s-.8,0-.8,0h-.8s-.8.1-.8.1h-.8c0,0-.8.1-.8.1h-.8c0,0-.4,0-.4,0h-.4s-.8,0-.8,0h-.8c0,0-.8.1-.8.1h-.8c0,0-.8.1-.8.1h-.8c0,0-.8.1-.8.1h-.8c0,0-.8.1-.8.1h-.8c0,0-.8.1-.8.1h-.8c0,0-.6,0-.6,0h-.2s-.8,0-.8,0h-.8c0,0-.8.1-.8.1h-.8c0,0-.8.1-.8.1h-.8c0,0-.8.1-.8.1h-.8c0,0-.8.1-.8.1h-.8c0,0-.8.1-.8.1h-.8c0,0-.3,0-.3,0h-.4s-.8,0-.8,0h-.8c0,0-.8.1-.8.1h-.8c0,0-.8.1-.8.1h-.8c0,0-.8.1-.8.1h-.8c0,0-.8.1-.8.1h-.8c0,0-.8.1-.8.1h-.6s-.2,0-.2,0h-.8c0,0-.8.1-.8.1h-.8c0,0-.8.1-.8.1h-.8c0,0-.8.1-.8.1h-.8c0,0-.8.1-.8.1h-.8c0,0-.8.1-.8.1h-.8c0,0-.4,0-.4,0h-.4s-.8,0-.8,0h-.8c0,0-.8.1-.8.1h-.8c0,0-.8.1-.8.1h-.8c0,0-.8.1-.8.1h-.8c0,0-.8.1-.8.1h-.8c0,0-.7.1-.7.1h0s-.8,0-.8,0h-.8c0,0-.8.1-.8.1h-.8c0,0-.8.1-.8.1h-.8c0,0-.8.1-.8.1h-.8c0,0-.8.1-.8.1h-.8c0,0-.5.1-.5.1h-.3s-.8,0-.8,0h-.8c0,0-.8.1-.8.1h-.8c0,0-.8.1-.8.1h-.8c0,0-.8.1-.8.1h-.8c0,0-.8.1-.8.1h-.8c0,0,0,0,0,0h-.7c0,0-.8.1-.8.1h-.8c0,0-.8.1-.8.1h-.8c0,0-.8.1-.8.1h-.8c0,0-.8.1-.8.1h-.8c0,0-.8.1-.8.1h-.2s-.6,0-.6,0h-.8c0,0-.8.1-.8.1h-.8c0,0-.8.1-.8.1h-.8c0,0-.8.1-.8.1h-.8c0,0-.8.1-.8.1h-.8c0,0,0,0,0,0h-.7c0,0-.8.1-.8.1h-.8c0,0-.8.1-.8.1h-.8c0,0-.8.1-.8.1h-.8c0,0-.8.1-.8.1h-.8c0,0-.5.1-.5.1h-.3s-.8.1-.8.1h-.8c0,0-.8.1-.8.1h-.8c0,0-.8.1-.8.1h-.8c0,0-.8.1-.8.1h-.8c0,0-.7.1-.7.1h0s-.8,0-.8,0h-.8c0,0-.8.2-.8.2h-.8c0,0-.8.2-.8.2h-.8c0,0-.8.2-.8.2h-.8c0,0-.7.1-.7.1h0s-.8,0-.8,0h-.8c0,0-.8.2-.8.2h-.8c0,0-.8.2-.8.2h-.8c0,0-.8.2-.8.2h-.8c0,0-.5.1-.5.1h-.3s-.8.1-.8.1h-.8c0,0-.8.2-.8.2h-.8c0,0-.8.2-.8.2h-.3s.3.3.3.3h.8l.8.7.8.7h.8l.8.7.8.7h.8l.8.7.8.7h.8l.8.7.8.7h.8l.8.7.8.7h.8l.8.7.8.7h.8l.8.7.8.7h.8l.8.7.8.7h.8l.8.7.8.7h.8l.8.7.8.7h.8l.8.7Z"/>
  <path class="st31" d="M399.5,451.6h123.3l-.8-.7-.8-.7h-.8l-.8-.7-.8-.7h-.8l-.8-.7-.8-.7h-.8l-.8-.7-.8-.7h-.8l-.8-.7-.8-.7h-.8l-.8-.7-.8-.7h-.8l-.8-.7-.8-.7h-.8l-.8-.7-.8-.7h-.8s-.8.1-.8.1h-.8c0,0-.8.1-.8.1h-.8c0,0-.8.1-.8.1h-.8c0,0-.8.1-.8.1h-.8c0,0-.8.1-.8.1h-.4s-.4,0-.4,0h-.8c0,0-.8.1-.8.1h-.8c0,0-.8.1-.8.1h-.8c0,0-.8.1-.8.1h-.8c0,0-.8.1-.8.1h-.8c0,0-.2,0-.2,0h-.6c0,0-.8.1-.8.1h-.8c0,0-.8.1-.8.1h-.8c0,0-.8.1-.8.1h-.8c0,0-.8.1-.8.1h-.8c0,0-.6.1-.6.1h-.2s-.8,0-.8,0h-.8c0,0-.8.1-.8.1h-.8c0,0-.8.1-.8.1h-.8c0,0-.8.1-.8.1h-.8c0,0-.8.1-.8.1h0s-.8,0-.8,0h-.8c0,0-.8.2-.8.2h-.8c0,0-.8.2-.8.2h-.8c0,0-.8.2-.8.2h-.8c0,0-.8.2-.8.2h0s-.8,0-.8,0h-.8c0,0-.8.2-.8.2h-.8c0,0-.8.2-.8.2h-.8c0,0-.8.2-.8.2h-.8c0,0-.6.1-.6.1h-.2s-.8,0-.8,0h-.8c0,0-.8.2-.8.2h-.8c0,0-.8.2-.8.2h-.8c0,0-.8.2-.8.2h-.8c0,0-.2.1-.2.1h-.5c0,0-.8.1-.8.1h-.8c0,0-.8.2-.8.2h-.8c0,0-.8.2-.8.2h-.8c0,0-.8.2-.8.2h-.5c0,0-.3,0-.3,0h-.8c0,0-.8.2-.8.2h-.8c0,0-.8.2-.8.2h-.8c0,0-.8.2-.8.2h-.8c0,0-.6.2-.6.2h-.2s-.8.1-.8.1h-.8c0,0-.8.2-.8.2h-.8c0,0-.8.2-.8.2h-.8c0,0-.8.2-.8.2h-.6c0,0-.2,0-.2,0h-.8c0,0-.8.2-.8.2h-.8c0,0-.8.2-.8.2h-.8c0,0-.8.2-.8.2h-.8c0,0-.4.1-.4.1h-.4s-.8.1-.8.1h-.8c0,0-.8.2-.8.2h-.8c0,0-.8.2-.8.2h-.8c0,0-.8.2-.8.2h0s-.7,0-.7,0h-.8c0,0-.8.2-.8.2h-.8c0,0-.8.2-.8.2h-.8c0,0-.8.2-.8.2h-.4s-.4,0-.4,0h-.8c0,0-.8.2-.8.2h-.8c0,0-.8.2-.8.2h-.8c0,0-.8.2-.8.2h-.6c0,0-.2,0-.2,0h-.8c0,0-.8.2-.8.2h-.8c0,0-.8.2-.8.2h-.8c0,0-.8.2-.8.2h-.6c0,0-.2,0-.2,0h-.8c0,0-.8.2-.8.2h-.8c0,0-.8.2-.8.2h-.8c0,0-.8.2-.8.2h-.5c0,0,.5,0,.5,0Z"/>
  <path class="st13" d="M50,451.6L286.8,41.5l236.8,410.1H50"/>
  <path class="st10" d="M227.4,280.7h-.3c0,0-.8-.2-.8-.2h-.3c0,0-.4-.1-.4-.1h-.8c0-.1-.8-.3-.8-.3h-.8c0-.1-.8-.3-.8-.3h-.3s-.5-.1-.5-.1h-.8c0-.1-.8-.3-.8-.3h-.8c0-.1-.8-.3-.8-.3h-.1s-.7-.1-.7-.1h-.8c0-.1-.8-.3-.8-.3h0M184.5,272.4h-.1s-.7-.2-.7-.2h0s-.8-.2-.8-.2l-.8-.2-.8-.2h-.6c0-.1-.2-.2-.2-.2l-.8-.2-.8-.2-.8-.2h-.4c0-.1-.3-.2-.3-.2l-.8-.2-.8-.2-.8-.2h-.2s-.6-.2-.6-.2l-.8-.2-.8-.2-.6-.2h-.2s-.8-.2-.8-.2l-.8-.2-.8-.2h-.2s-.6-.2-.6-.2l-.8-.2-.8-.2h-.4c0-.1-.4-.2-.4-.2l-.8-.2-.8-.2-.6-.2h-.2c0,0-.8-.3-.8-.3l-.8-.2-.6-.2h-.2c0,0-.8-.3-.8-.3l-.8-.2h-.5c0-.1-.3-.2-.3-.2l-.8-.2-.8-.2"/>
  <path class="st10" d="M289.1,316.3l-26.4-.2-55.9-.3M174.7,315.7h-43.9"/>
  <path class="st10" d="M322.2,335.4l-17.6-1.4-22.9-1.7-24.5-1.6-10.9-.6M214.3,328.5l-33.3-1.5-30.5-1.1h-2.2"/>
  <path class="st10" d="M348.4,350.6l-22.4-1.5-4-.4-18.2-2-16.5-1.6M260.2,342.7l-32.3-2.5-27.7-1.9-29.3-1.8-4.5-.3h0"/>
  <path class="st11" d="M360.8,357.9l-6.8-.4M334.3,356.4l-41.6-2.5-40.3-2.7-31.6-2.3-23.7-1.9-13.7-1h0"/>
  <path class="st11" d="M385.2,372.2l-42.7-1.6-33.2-1.4-44.3-2.2-8.3-.4M227.5,364.9l-12.8-.7h0"/>
  <path class="st11" d="M408.1,385.2l-15.3-.2M363.5,384.6l-59.7-1-50.6-1-7.2-.2h0"/>
  <path class="st11" d="M431.4,398.5l-74.2.9M327.9,399.7l-49.8.8h0"/>
  <path class="st11" d="M455,412l-13.9.5M411.7,413.7l-37.9,1.7-34.4,1.7-30,1.7h0"/>
  <path class="st11" d="M479.2,426.2l-32.3,2-28.5,2-7.5.6M381.7,433.2l-25.7,2.3-15.3,1.5h0"/>
  <path class="st11" d="M504.2,440.7h-.4s-.8.1-.8.1h-.8c0,0-.8.1-.8.1h-.8c0,0-.8.1-.8.1h-.8c0,0-.8.1-.8.1h-.8c0,0-.8.1-.8.1h-.4s-.4,0-.4,0h-.8c0,0-.8.1-.8.1h-.8c0,0-.8.1-.8.1h-.8c0,0-.4.1-.4.1M462.4,444.5h-.4s-.8.1-.8.1h-.8c0,0-.6.1-.6.1h-.2s-.8,0-.8,0h-.8c0,0-.8.2-.8.2h-.8c0,0-.8.2-.8.2h-.8c0,0-.8.2-.8.2h-.8c0,0-.2.1-.2.1h-.5c0,0-.8.1-.8.1h-.8c0,0-.8.2-.8.2h-.8c0,0-.8.2-.8.2h-.8c0,0-.8.2-.8.2h-.5c0,0-.3,0-.3,0h-.8c0,0-.8.2-.8.2h-.8c0,0-.8.2-.8.2h-.8c0,0-.8.2-.8.2h-.8c0,0-.6.2-.6.2h-.2s-.8.1-.8.1h-.8c0,0-.8.2-.8.2h-.8c0,0-.8.2-.8.2h-.8c0,0-.8.2-.8.2h-.6c0,0-.2,0-.2,0h-.8c0,0-.8.2-.8.2h-.8c0,0-.8.2-.8.2h-.8c0,0-.8.2-.8.2h-.8c0,0-.4.1-.4.1h-.4s-.8.1-.8.1h-.8c0,0-.8.2-.8.2h-.8c0,0-.8.2-.8.2h-.8c0,0-.8.2-.8.2h0s-.7,0-.7,0h-.8c0,0-.8.2-.8.2h-.8c0,0-.8.2-.8.2h-.8c0,0-.8.2-.8.2h-.4s-.4,0-.4,0h-.8c0,0-.8.2-.8.2h-.8c0,0-.8.2-.8.2h-.8c0,0-.8.2-.8.2h-.6c0,0-.2,0-.2,0h-.8c0,0-.8.2-.8.2h-.8c0,0-.8.2-.8.2h-.8c0,0-.8.2-.8.2h-.6c0,0-.2,0-.2,0h-.8c0,0-.8.2-.8.2h-.8c0,0-.8.2-.8.2h-.8c0,0-.8.2-.8.2h-.5"/>
  <text class="st24" transform="translate(185 274.8) rotate(11.4)"><tspan x="0" y="0">-200 °C</tspan></text>
  <text class="st24" transform="translate(175.6 317.9) rotate(.2)"><tspan x="0" y="0">-150 °C</tspan></text>
  <text class="st24" transform="translate(215 330.7) rotate(3)"><tspan x="0" y="0">-100 °C</tspan></text>
  <text class="st24" transform="translate(261 344.9) rotate(5.1)"><tspan x="0" y="0">-50 °C</tspan></text>
  <text class="st24" transform="translate(335.4 358.6) rotate(3.3)"><tspan x="0" y="0">0 °C</tspan></text>
  <text class="st24" transform="translate(228.3 367.2) rotate(3.2)"><tspan x="0" y="0">100 °C</tspan></text>
  <text class="st24" transform="translate(364.4 386.8) rotate(.8)"><tspan x="0" y="0">200 °C</tspan></text>
  <text class="st24" transform="translate(328.9 401.9) rotate(-.8)"><tspan x="0" y="0">300 °C</tspan></text>
  <text class="st24" transform="translate(412.8 415.8) rotate(-2.3)"><tspan x="0" y="0">400 °C</tspan></text>
  <text class="st24" transform="translate(382.8 435.3) rotate(-4.8)"><tspan x="0" y="0">500 °C</tspan></text>
  <text class="st24" transform="translate(463.5 446.6) rotate(-5.5)"><tspan x="0" y="0">600 °C</tspan></text>
  <path class="st9" d="M365.7,451.6l-236.8-136.7h0"/>
  <path class="st9" d="M523.6,451.6L168.4,246.6h0"/>
  <text class="st7" transform="translate(228.9 388.6) rotate(30)"><tspan x="0" y="0">Titanomagnetite series</tspan></text>
  <text class="st7" transform="translate(275.7 296.5) rotate(30)"><tspan x="0" y="0">Titanohematite series</tspan></text>
  <path id="m9f8130f75f" class="st8" d="M365.7,455.2c.9,0,1.8-.4,2.5-1s1-1.6,1-2.5-.4-1.8-1-2.5-1.6-1-2.5-1-1.8.4-2.5,1-1,1.6-1,2.5.4,1.8,1,2.5,1.6,1,2.5,1Z"/>
  <path id="m9f8130f75f1" data-name="m9f8130f75f" class="st8" d="M129,318.5c.9,0,1.8-.4,2.5-1s1-1.6,1-2.5-.4-1.8-1-2.5-1.6-1-2.5-1-1.8.4-2.5,1-1,1.6-1,2.5.4,1.8,1,2.5,1.6,1,2.5,1Z"/>
  <path id="m9f8130f75f2" data-name="m9f8130f75f" class="st8" d="M208.8,174.8c-.9-.2-1.9-.1-2.7.4s-1.4,1.2-1.6,2.1-.1,1.9.4,2.7,1.2,1.4,2.1,1.6,1.9.1,2.7-.4,1.4-1.2,1.6-2.1.1-1.9-.4-2.7-1.2-1.4-2.1-1.6Z"/>
  <path id="m9f8130f75f3" data-name="m9f8130f75f" class="st8" d="M447.2,317.4c.7-.7,1-1.6,1-2.5s-.4-1.8-1-2.5-1.6-1-2.5-1-1.8.4-2.5,1-1,1.6-1,2.5.4,1.8,1,2.5,1.6,1,2.5,1,1.8-.4,2.5-1Z"/>
  <path id="m9f8130f75f4" data-name="m9f8130f75f" class="st8" d="M168.4,250.1c.9,0,1.8-.4,2.5-1s1-1.6,1-2.5-.4-1.8-1-2.5-1.6-1-2.5-1-1.8.4-2.5,1-1,1.6-1,2.5.4,1.8,1,2.5,1.6,1,2.5,1Z"/>
  <path id="m9f8130f75f5" data-name="m9f8130f75f" class="st8" d="M523.6,455.2c.9,0,1.8-.4,2.5-1s1-1.6,1-2.5-.4-1.8-1-2.5-1.6-1-2.5-1-1.8.4-2.5,1-1,1.6-1,2.5.4,1.8,1,2.5,1.6,1,2.5,1Z"/>
  <text class="st21" transform="translate(380.4 453.8)"><tspan x="0" y="0"> </tspan></text>
  <text class="st21" transform="translate(384.8 453.8)"><tspan x="0" y="0"> </tspan></text>
  <text class="st21" transform="translate(396.1 453.8)"><tspan x="0" y="0"> </tspan></text>
  <text class="st23" transform="translate(400.3 453.8)"><tspan x="0" y="0"> </tspan></text>
  <text class="st21" transform="translate(411 453.8)"><tspan x="0" y="0"> </tspan></text>
  <text class="st21" transform="translate(416.4 453.8)"><tspan x="0" y="0"> </tspan></text>
  <text class="st21" transform="translate(421.8 453.8)"><tspan x="0" y="0"> </tspan></text>
  <text class="st23" transform="translate(422.5 453.8)"><tspan x="0" y="0"> </tspan></text>
  <text class="st21" transform="translate(424.9 453.8)"><tspan x="0" y="0"> </tspan></text>
  <text class="st21" transform="translate(428.6 453.8)"><tspan x="0" y="0"> </tspan></text>
  <text class="st21" transform="translate(435.6 453.8)"><tspan x="0" y="0"> </tspan></text>
  <text class="st21" transform="translate(388.7 455.3)"><tspan x="0" y="0"> </tspan></text>
  <g>
    <text class="st2" transform="translate(103 235.6)"><tspan x="0" y="0">Ilmenite</tspan><tspan x="-21.5" y="12">FeTiO</tspan></text>
    <text class="st2" transform="translate(108.4 250.9) scale(.6)"><tspan x="0" y="0">3</tspan></text>
    <text class="st2" transform="translate(112 247.6)"><tspan x="0" y="0" xml:space="preserve"> (-218 °C)</tspan></text>
  </g>
  <text class="st21" transform="translate(158 246.5)"><tspan x="0" y="0"> </tspan></text>
  <g>
    <text class="st2" transform="translate(448.7 306.5)"><tspan x="0" y="0">Pseudobrookite</tspan><tspan x="17.9" y="12">Fe</tspan></text>
    <text class="st2" transform="translate(477.3 321.9) scale(.6)"><tspan x="0" y="0">2</tspan></text>
    <text class="st2" transform="translate(480.9 318.5)"><tspan x="0" y="0">TiO</tspan></text>
    <text class="st2" transform="translate(497.1 321.9) scale(.6)"><tspan x="0" y="0">5</tspan></text>
  </g>
  <g>
    <text class="st2" transform="translate(110.9 168.1)"><tspan x="0" y="0">Ferropseudobrookite</tspan><tspan x="30.3" y="12">FeTi</tspan></text>
    <text class="st2" transform="translate(159.1 183.4) scale(.6)"><tspan x="0" y="0">2</tspan></text>
    <text class="st2" transform="translate(162.7 180.1)"><tspan x="0" y="0">O</tspan></text>
    <text class="st2" transform="translate(171.6 183.4) scale(.6)"><tspan x="0" y="0">5</tspan></text>
  </g>
  <path id="m656320175a" class="st15" d="M223.7,364.1l-1.2,3.8h-4l3.2,2.3-1.2,3.8,3.2-2.3,3.2,2.3-1.2-3.8,3.2-2.3h-4l-1.2-3.8Z"/>
  <path class="st17" d="M540.9,410.4h18V82.8h-18v327.6Z"/>
  <path class="st20" d="M540.9,410.4l9,16.4,9-16.4"/>
  <path class="st0" d="M540.9,82.8l9-16.4,9,16.4"/>
  <path class="st26" d="M540.9,410.4h18v-29.8h-18v29.8"/>
  <path class="st29" d="M540.9,380.6h18v-29.8h-18v29.8"/>
  <path class="st18" d="M540.9,350.8h18v-29.8h-18v29.8"/>
  <path class="st27" d="M540.9,321h18v-29.8h-18v29.8"/>
  <path class="st1" d="M540.9,291.2h18v-29.8h-18v29.8"/>
  <path class="st25" d="M540.9,261.5h18v-29.8h-18v29.8"/>
  <path class="st19" d="M540.9,231.7h18v-29.8h-18v29.8"/>
  <path class="st28" d="M540.9,201.9h18v-29.8h-18v29.8"/>
  <path class="st22" d="M540.9,172.1h18v-29.8h-18v29.8"/>
  <path class="st30" d="M540.9,142.3h18v-29.8h-18v29.8"/>
  <path class="st31" d="M540.9,112.5h18v-29.8h-18v29.8"/>
  <path id="ma28586edf1" class="st14" d="M559,410.4h3.5"/>
  <text class="st2" transform="translate(566 414.2)"><tspan x="0" y="0">−200</tspan></text>
  <path id="ma28586edf11" data-name="ma28586edf1" class="st14" d="M559,350.8h3.5"/>
  <text class="st2" transform="translate(566 354.6)"><tspan x="0" y="0">−100</tspan></text>
  <path id="ma28586edf12" data-name="ma28586edf1" class="st14" d="M559,291.2h3.5"/>
  <text class="st2" transform="translate(566 295)"><tspan x="0" y="0">0</tspan></text>
  <path id="ma28586edf13" data-name="ma28586edf1" class="st14" d="M559,231.7h3.5"/>
  <text class="st2" transform="translate(566 235.5)"><tspan x="0" y="0">200</tspan></text>
  <path id="ma28586edf14" data-name="ma28586edf1" class="st14" d="M559,172.1h3.5"/>
  <text class="st2" transform="translate(566 175.9)"><tspan x="0" y="0">400</tspan></text>
  <path id="ma28586edf15" data-name="ma28586edf1" class="st14" d="M559,112.5h3.5"/>
  <text class="st2" transform="translate(566 116.3)"><tspan x="0" y="0">600</tspan></text>
  <text class="st4" transform="translate(605.8 308.2) rotate(-90)"><tspan x="0" y="0">Curie Temperature (°C)</tspan></text>
  <path class="st16" d="M540.9,410.4l9,16.4,9-16.4V82.8l-9-16.4-9,16.4v327.6Z"/>
  <text class="st6" transform="translate(272.6 15.3)"><tspan x="0" y="0">Rutile</tspan><tspan x="2.9" y="14.4">TiO</tspan></text>
  <text class="st6" transform="translate(295 33.7) scale(.6)"><tspan x="0" y="0">2</tspan></text>
  <text class="st2" transform="translate(129.8 374)"><tspan x="0" y="0">Avg. Oceanic TM</tspan><tspan x="-6.9" y="12">Fe</tspan></text>
  <text class="st2" transform="translate(133.5 389.4) scale(.6)"><tspan x="0" y="0">2.4</tspan></text>
  <text class="st2" transform="translate(142.5 386)"><tspan x="0" y="0">Ti</tspan></text>
  <text class="st2" transform="translate(149.8 389.4) scale(.6)"><tspan x="0" y="0">0.6</tspan></text>
  <text class="st2" transform="translate(158.8 386)"><tspan x="0" y="0">O</tspan></text>
  <text class="st5" transform="translate(167.8 389.4) scale(.6)"><tspan x="0" y="0">4</tspan></text>
  <text class="st2" transform="translate(171.4 386)"><tspan x="0" y="0" xml:space="preserve"> (130 °C)</tspan></text>
  <text class="st2" transform="translate(342.9 468.3)"><tspan x="0" y="0">Magnetite</tspan><tspan x="0" y="12">Fe</tspan></text>
  <text class="st2" transform="translate(353.5 483.6) scale(.6)"><tspan x="0" y="0">3</tspan></text>
  <text class="st2" transform="translate(357.1 480.3)"><tspan x="0" y="0">O</tspan></text>
  <text class="st3" transform="translate(366 483.6) scale(.6)"><tspan x="0" y="0">4</tspan></text>
  <text class="st2" transform="translate(369.6 480.3)"><tspan x="0" y="0" xml:space="preserve"> (580 °C)</tspan></text>
  <text class="st6" transform="translate(533.4 456.8)"><tspan x="0" y="0">Hematite</tspan><tspan x="-19.1" y="14.4">Fe</tspan></text>
  <text class="st6" transform="translate(527 475.2) scale(.6)"><tspan x="0" y="0">2</tspan></text>
  <text class="st6" transform="translate(531.3 471.2)"><tspan x="0" y="0">O</tspan></text>
  <text class="st6" transform="translate(542.1 475.2) scale(.6)"><tspan x="0" y="0">3</tspan></text>
  <text class="st6" transform="translate(546.4 471.2)"><tspan x="0" y="0" xml:space="preserve"> (675 °C)</tspan></text>
  <text class="st6" transform="translate(3.5 456.8)"><tspan x="0" y="0">Wüstite</tspan><tspan x="8.4" y="14.4">FeO</tspan></text>
  <text class="st2" transform="translate(52.4 306.2)"><tspan x="0" y="0">Ulvöspinel</tspan><tspan x="-19.5" y="12">Fe</tspan></text>
  <text class="st2" transform="translate(43.5 321.5) scale(.6)"><tspan x="0" y="0">2</tspan></text>
  <text class="st2" transform="translate(47.1 318.2)"><tspan x="0" y="0">TiO</tspan></text>
  <text class="st2" transform="translate(63.4 321.5) scale(.6)"><tspan x="0" y="0">4</tspan></text>
  <text class="st2" transform="translate(67 318.2)"><tspan x="0" y="0" xml:space="preserve"> (–153 °C)</tspan></text>
</svg>