<?xml version="1.0" encoding="UTF-8"?>
<svg id="Layer_1" xmlns="http://www.w3.org/2000/svg" version="1.1" viewBox="0 0 64 64">
  <!-- Generator: Adobe Illustrator 29.1.0, SVG Export Plug-In . SVG Version: 2.1.0 Build 142)  -->
  <defs>
    <style>
      .st0 {
        fill: none;
        stroke: #a6505c;
        stroke-width: 2px;
      }

      .st0, .st1 {
        stroke-miterlimit: 10;
      }

      .st1 {
        fill: #fff;
        stroke: #4d4d4f;
        stroke-width: 3px;
      }
    </style>
  </defs>
  <polygon class="st0" points="2.2 51.2 61.8 51.2 48.7 29.5 16.9 29.5 2.2 51.2"/>
  <path class="st0" d="M11.6,37.2c6.4,0,14.2,17.7,20.6,17.7s14.3-17.7,21.4-17.4"/>
  <path class="st0" d="M14.9,32.4c4.2,0,12.9,7.4,17.3,7.4s13.8-6.9,18.5-6.9"/>
  <path class="st0" d="M7.9,42.7c6.5,0,18.3,6.4,24.4,6.4s18.5-5.8,24.8-5.8"/>
  <polyline class="st0" points="32.3 50.7 32.3 54.6 32.3 29.5"/>
  <path class="st0" d="M50,51.2c-1-2.8-2.2-5.3-3.6-5.6s-.6.6-1.8-1.5-.4-6.5-.9-9.3-.5-4-.9-5.4"/>
  <path class="st0" d="M13.3,51.2c1-3.5,2.3-5.2,3.7-6.2,1.5-1,1.9.3,2.8-1.8s-.2-7.1.5-9.4,1.8-3.2,2.5-4.4"/>
  <circle class="st1" cx="32.5" cy="23.4" r="8.6"/>
</svg>